<?xml version="1.0" encoding="UTF-8" standalone="no"?>
<svg
   xmlns:dc="http://purl.org/dc/elements/1.1/"
   xmlns:cc="http://creativecommons.org/ns#"
   xmlns:rdf="http://www.w3.org/1999/02/22-rdf-syntax-ns#"
   xmlns:svg="http://www.w3.org/2000/svg"
   xmlns="http://www.w3.org/2000/svg"
   xmlns:sodipodi="http://sodipodi.sourceforge.net/DTD/sodipodi-0.dtd"
   xmlns:inkscape="http://www.inkscape.org/namespaces/inkscape"
   version="1.1"
   id="svg2"
   viewBox="0 0 694.14433 129.01088"
   height="36.409737mm"
   width="195.90295mm"
   sodipodi:docname="logo-side.svg"
   inkscape:version="0.92.0 r15299">
  <sodipodi:namedview
     pagecolor="#ffffff"
     bordercolor="#666666"
     borderopacity="1"
     objecttolerance="10"
     gridtolerance="10"
     guidetolerance="10"
     inkscape:pageopacity="0"
     inkscape:pageshadow="2"
     inkscape:window-width="1366"
     inkscape:window-height="715"
     id="namedview10"
     showgrid="false"
     fit-margin-top="0"
     fit-margin-left="0"
     fit-margin-right="0"
     fit-margin-bottom="0"
     inkscape:zoom="1"
     inkscape:cx="402.91107"
     inkscape:cy="122.3775"
     inkscape:window-x="-8"
     inkscape:window-y="-8"
     inkscape:window-maximized="1"
     inkscape:current-layer="svg2" />
  <defs
     id="defs4" />
  <metadata
     id="metadata7">
    <rdf:RDF>
      <cc:Work
         rdf:about="">
        <dc:format>image/svg+xml</dc:format>
        <dc:type
           rdf:resource="http://purl.org/dc/dcmitype/StillImage" />
        <dc:title></dc:title>
      </cc:Work>
    </rdf:RDF>
  </metadata>
  <g
     id="g4720"
     transform="translate(28.773873,59.404126)">
    <g
       transform="matrix(2.0812163,0,0,2.0812163,-264.79374,101.00199)"
       id="g4684">
      <path
         inkscape:connector-curvature="0"
         style="fill:#0a0d0d;stroke-width:0.33363673"
         d="m 247.68555,-60.132812 -0.0977,2.833984 c -0.054,1.558724 -0.21537,2.951678 -0.35937,3.095703 -0.14404,0.144028 -0.70038,0.0334 -1.23633,-0.246094 -1.41062,-0.735605 -4.3147,-0.650466 -6.02149,0.175781 -2.28117,1.104292 -2.79564,2.552761 -2.78711,7.841797 0.0101,5.934176 0.85489,7.693035 4.08789,8.511719 1.54661,0.39164 3.82825,0.08032 5.08008,-0.693359 1.36304,-0.842422 1.71294,-0.837314 1.9375,0.02148 0.15251,0.583197 0.39874,0.672048 1.62305,0.583985 l 1.44336,-0.105469 v -11.009766 -11.009765 h -1.83399 z m -3.29493,8.134765 c 0.88085,0.0026 1.74108,0.289907 2.31055,0.859375 0.77123,0.771204 0.81836,1.034303 0.81836,4.525391 0,4.058477 -0.20745,4.74191 -1.66211,5.49414 -2.01386,1.041411 -4.09199,0.255992 -4.70117,-1.777343 -0.21316,-0.71134 -0.32817,-2.633298 -0.26172,-4.361328 0.11164,-2.903738 0.17502,-3.138087 1.05469,-3.894532 0.65803,-0.565862 1.56056,-0.848289 2.4414,-0.845703 z"
         transform="scale(0.9375)"
         id="path4606" />
      <path
         style="fill:#0a0d0d;stroke-width:0.31278443"
         d="m 244.45293,-35.700885 c -3.08026,-1.140534 -3.69629,-2.929079 -3.57515,-10.379957 l 0.086,-5.2887 h 1.72031 1.72032 l 0.15639,5.832898 c 0.1369,5.105602 0.22868,5.912657 0.7362,6.472548 1.18417,1.306372 4.14152,1.088493 4.97452,-0.366493 0.25133,-0.438965 0.44381,-2.667507 0.54497,-6.308833 l 0.15639,-5.63012 h 1.72031 1.72032 l 0.0836,7.897807 0.0836,7.897806 h -1.53115 c -1.20857,0 -1.62304,-0.13841 -1.96738,-0.656975 l -0.43621,-0.656979 -1.11085,0.655424 c -1.47585,0.870761 -3.5735,1.090171 -5.08213,0.531574 z"
         id="path4602"
         inkscape:connector-curvature="0" />
      <path
         inkscape:connector-curvature="0"
         style="fill:#0a0d0d;stroke-width:0.33363673"
         d="m 311.91211,-54.789062 c -3.61232,0.0064 -5.15048,0.677962 -6.04102,2.638671 -1.03154,2.271199 -0.90875,2.527344 1.21094,2.527344 1.6469,0 1.8759,-0.08734 2.15235,-0.814453 0.39852,-1.048213 1.30898,-1.521484 2.92578,-1.521484 2.02401,0 3.33071,1.605039 3.03125,3.720703 -0.10407,0.735108 -0.29029,0.797251 -2.94727,0.980469 -1.55974,0.107554 -3.37338,0.372032 -4.03125,0.589843 -3.96927,1.314195 -4.52942,6.745488 -0.86719,8.408203 2.14442,0.973592 5.09876,0.719929 6.59375,-0.566406 0.74764,-0.643305 1.41348,-0.562871 1.91016,0.232422 0.33143,0.530713 0.70839,0.663344 1.66406,0.583984 l 1.23633,-0.103515 0.0918,-6.171875 c 0.0854,-5.849093 0.0498,-6.251075 -0.66797,-7.673828 -1.08455,-2.149916 -2.6046,-2.836478 -6.26172,-2.830078 z m 0.21094,9.910156 c 0.30109,-0.01259 0.61978,-0.01125 0.95507,0.0039 1.89423,0.08564 2.00809,0.137966 2.10547,0.980469 0.0703,0.607739 -0.20039,1.229962 -0.85351,1.960937 -0.77495,0.867295 -1.27049,1.099636 -2.60547,1.21875 -2.16437,0.193122 -3.2327,-0.50572 -3.08594,-2.017578 0.12626,-1.300417 1.37675,-2.058349 3.48438,-2.146484 z"
         transform="scale(0.9375)"
         id="path4600" />
      <path
         inkscape:connector-curvature="0"
         style="fill:#0a0d0d;stroke-width:0.33363673"
         d="m 355.50781,-54.839844 c -1.66223,-0.01688 -3.33111,0.195875 -4.1582,0.646485 -1.30628,0.711687 -2.4011,2.375736 -2.4043,3.652343 -0.001,0.867165 0.0833,0.917969 1.52344,0.917969 1.30926,0 1.67871,-0.164633 2.625,-1.167969 0.90862,-0.963439 1.33891,-1.167968 2.46094,-1.167968 1.99274,0 3.15612,1.101797 3.19922,3.029296 l 0.0332,1.47461 -3.00195,0.205078 c -5.16079,0.350401 -7.27154,1.789396 -7.31836,4.994141 -0.0274,1.876252 0.77649,3.179722 2.5039,4.060547 1.64806,0.840367 3.88319,0.743683 5.8418,-0.25 1.99558,-1.012414 2.34675,-1.031226 2.57812,-0.146485 0.15252,0.583197 0.39874,0.672048 1.62305,0.583985 l 1.44336,-0.105469 0.10156,-4.835938 c 0.16506,-7.814295 -0.30714,-9.614971 -2.9375,-11.160156 -0.79511,-0.467079 -2.45105,-0.713592 -4.11328,-0.730469 z m 1.81836,9.902344 c 0.99605,-0.0022 1.27519,0.12405 1.40821,0.470703 0.33994,0.885865 -0.64,2.761114 -1.74024,3.330078 -3.03413,1.568993 -6.40061,-0.611089 -4.25586,-2.755859 0.75842,-0.758419 1.21697,-0.897103 3.33203,-1.003906 0.51234,-0.02587 0.92385,-0.0403 1.25586,-0.04102 z"
         transform="scale(0.9375)"
         id="path4596" />
      <path
         style="fill:#0a0d0d;stroke-width:0.31278443"
         d="m 374.78751,-35.619855 c -1.66229,-0.373274 -2.76123,-1.481419 -3.20097,-3.227804 -0.20334,-0.807503 -0.34807,-4.255097 -0.34807,-8.291224 0,-7.723266 -0.13678,-7.29168 2.32493,-7.335736 l 1.27209,-0.02277 0.15639,1.40753 c 0.15602,1.403973 0.15977,1.407773 1.48573,1.503711 l 1.32933,0.09618 v 1.389545 c 0,1.326762 -0.0412,1.389544 -0.91276,1.389544 -1.90617,0 -1.9023,-0.0095 -1.9023,4.655634 0,4.785126 0.22646,5.46527 1.96892,5.913549 0.84386,0.217094 1.01858,0.42316 1.10394,1.301846 0.1527,1.571922 -0.54812,1.832812 -3.27723,1.219991 z"
         id="path4592"
         inkscape:connector-curvature="0" />
      <path
         style="fill:#0a0d0d;stroke-width:0.31278443"
         d="m 381.79495,-35.598995 c -1.06757,-0.621809 -0.45454,-2.164437 0.86015,-2.164437 1.28686,0 1.80011,1.126668 0.91602,2.010756 -0.56548,0.565478 -1.00403,0.603418 -1.77617,0.153681 z"
         id="path4590"
         inkscape:connector-curvature="0" />
      <path
         style="fill:#0a0d0d;stroke-width:0.31278443"
         d="m 391.25667,-35.462128 c -3.31026,-1.325198 -3.75594,-2.252529 -3.74653,-7.795588 0.008,-4.988051 0.45751,-6.285243 2.5501,-7.36687 1.88991,-0.97687 5.7872,-0.994179 7.64367,-0.03395 1.31839,0.681904 2.31073,2.185193 2.31073,3.500464 0,0.574601 -0.15289,0.661571 -1.01655,0.578298 -0.75938,-0.07322 -1.04054,-0.26622 -1.11142,-0.762909 -0.0521,-0.365692 -0.45053,-0.999081 -0.88527,-1.40753 -0.68484,-0.643438 -1.09935,-0.742635 -3.10326,-0.742635 -2.11045,0 -2.3888,0.07589 -3.18093,0.867267 -0.866,0.865199 -0.86807,0.877667 -0.86807,5.232029 0,4.327198 0.007,4.372048 0.84631,5.21107 0.68621,0.686196 1.20412,0.872187 2.73761,0.98311 2.81109,0.203335 3.82044,-0.360366 4.51032,-2.518963 0.11582,-0.362454 0.49523,-0.547373 1.12308,-0.547373 0.81249,0 0.94818,0.116331 0.94818,0.812887 0,1.271765 -0.85275,2.755074 -1.95982,3.409043 -0.73698,0.43534 -1.7327,0.62077 -3.67015,0.68345 -1.46236,0.0473 -2.86995,0.002 -3.128,-0.1018 z"
         id="path4588"
         inkscape:connector-curvature="0" />
      <path
         inkscape:connector-curvature="0"
         style="fill:#0a0d0d;stroke-width:0.33363673"
         d="m 437.52539,-54.794922 c -3.02615,0 -4.81668,0.680841 -5.98437,2.275391 -0.60362,0.824317 -0.70088,1.521434 -0.79688,5.638672 -0.1485,6.371433 0.3627,7.783565 3.19141,8.792968 1.5498,0.553025 5.27062,0.606447 6.79297,0.09766 1.56245,-0.522195 2.90964,-1.858431 3.30273,-3.273438 0.1813,-0.652683 0.33203,-2.99413 0.33203,-5.203125 0.002,-3.503856 -0.0931,-4.205212 -0.74805,-5.503906 -1.05899,-2.100043 -2.61958,-2.824219 -6.08984,-2.824219 z m -0.125,1.851563 c 1.07112,-0.02635 2.14591,0.08347 2.71289,0.341797 1.39864,0.637272 1.71868,1.581921 1.85547,5.488281 0.14764,4.215026 -0.26527,6.258342 -1.41211,7.009765 -1.0666,0.69887 -3.78453,0.911626 -5.19922,0.40625 -1.84053,-0.657508 -2.33594,-2.021646 -2.33594,-6.455078 -5.9e-4,-4.277432 0.36086,-5.630383 1.6875,-6.316406 0.55282,-0.285875 1.62029,-0.448261 2.69141,-0.474609 z"
         transform="scale(0.9375)"
         id="path4586" />
      <path
         style="fill:#0a0d0d;stroke-width:0.31278443"
         d="m 420.83713,-35.752676 c -0.2703,-0.270333 -0.4915,-0.612163 -0.4915,-0.759618 0,-0.46335 0.9594,-1.251138 1.52372,-1.251138 1.2492,0 1.75529,1.606395 0.68635,2.178487 -0.82197,0.439897 -1.14217,0.408647 -1.71857,-0.167731 z"
         id="path4582"
         inkscape:connector-curvature="0" />
      <path
         inkscape:connector-curvature="0"
         style="fill:#0a0d0d;stroke-width:0.33363673"
         d="m 476.72852,-60.675781 -1.08594,0.105469 -1.08399,0.103515 -0.0957,3.167969 c -0.0534,1.741547 -0.22396,3.292322 -0.37891,3.447266 -0.15493,0.154943 -0.71256,0.06576 -1.23828,-0.199219 -2.23727,-1.127676 -5.88412,-0.886568 -7.65429,0.505859 -1.31243,1.032362 -1.86048,2.694105 -2.05469,6.248047 -0.31955,5.84799 0.86306,8.592632 4.00586,9.296875 0.77576,0.173837 1.78735,0.326264 2.24609,0.337891 1.06584,0.02694 3.21212,-0.735288 3.94922,-1.402344 0.6222,-0.563109 1.14934,-0.372869 1.48438,0.535156 0.12748,0.345561 0.56068,0.583985 1.06054,0.583985 h 0.84571 v -11.365235 z m -6.47266,8.050781 c 3.35772,0 4.13672,1.173692 4.13672,6.232422 0,3.485456 -0.47686,5.085266 -1.76563,5.929687 -1.92374,1.2605 -5.69985,0.816849 -6.54883,-0.769531 -0.20065,-0.3749 -0.35937,-2.461417 -0.35937,-4.714844 0,-5.802309 0.59462,-6.677734 4.53711,-6.677734 z"
         transform="scale(0.9375)"
         id="path4580" />
      <path
         style="fill:#0a0d0d;stroke-width:0.31278443"
         d="m 259.88722,-43.533595 v -7.992349 h 1.43681 c 1.17378,0 1.46677,0.11453 1.60042,0.625569 0.09,0.344063 0.32852,0.625569 0.53014,0.625569 0.20162,0 0.91871,-0.281506 1.59357,-0.625569 2.6481,-1.350071 6.14797,-0.437523 7.40743,1.931394 0.67742,1.274168 0.71943,1.698457 0.72212,7.295747 l 0.003,5.942904 h -1.72031 -1.72032 l -0.15986,-5.63012 c -0.0879,-3.096566 -0.27159,-5.857373 -0.40819,-6.135126 -0.66307,-1.348435 -3.46493,-1.617061 -4.81003,-0.46116 l -0.87758,0.754152 -0.15639,5.736125 -0.15639,5.736129 -1.64212,0.09454 -1.64212,0.09454 v -7.992349 z"
         id="path4576"
         inkscape:connector-curvature="0" />
      <path
         style="fill:#0a0d0d;stroke-width:0.31278443"
         d="m 278.48876,-35.954121 c -0.0875,-0.228095 -0.12127,-3.719505 -0.075,-7.758684 l 0.0841,-7.343962 h 1.56392 1.56392 v 7.663218 7.663219 l -1.48891,0.09546 c -1.01981,0.06538 -1.53906,-0.0352 -1.64806,-0.319256 z"
         id="path4574"
         inkscape:connector-curvature="0" />
      <path
         style="fill:#0a0d0d;stroke-width:0.31278443"
         d="m 307.0141,-35.808527 c -0.29354,-0.490133 -4.90098,-14.847182 -4.90098,-15.271749 0,-0.575379 2.91108,-0.622754 3.36071,-0.05469 0.50183,0.634067 1.64468,4.379407 2.27482,7.454969 0.3221,1.572146 0.6661,2.938938 0.7645,3.037319 0.3751,0.3751 0.71609,-0.496161 1.21001,-3.091562 0.28119,-1.477612 0.90082,-3.800036 1.37697,-5.160943 0.85906,-2.455442 0.87467,-2.475116 2.0392,-2.571482 0.99644,-0.08246 1.21664,0.01642 1.45958,0.655346 0.24897,0.65488 1.98267,7.558001 2.3932,9.529062 0.0806,0.387071 0.33715,0.703765 0.57005,0.703765 0.28558,0 0.5871,-0.89126 0.92588,-2.736864 0.27628,-1.505275 0.90444,-3.933264 1.39589,-5.395531 l 0.8935,-2.658667 1.50256,-0.09712 c 0.8264,-0.05341 1.61815,0.01849 1.75944,0.159805 0.14132,0.141306 -0.87198,3.745793 -2.25174,8.009974 l -2.50868,7.753056 -1.75516,-0.09325 -1.75519,-0.09325 -0.55216,-1.720315 c -0.30368,-0.946173 -0.788,-2.818438 -1.07626,-4.160586 -0.72851,-3.392047 -1.28464,-3.207554 -2.17019,0.719958 -0.36849,1.634298 -0.84777,3.499275 -1.06513,4.144393 -0.39095,1.16049 -0.41293,1.172942 -2.07273,1.172942 -0.92268,0 -1.74083,-0.105565 -1.81809,-0.234589 z"
         id="path4572"
         inkscape:connector-curvature="0" />
      <path
         style="fill:#0a0d0d;stroke-width:0.31278443"
         d="m 346.99768,-36.004971 c -2.08565,-0.937627 -2.15415,-1.171337 -2.42652,-8.275631 -0.13628,-3.554858 -0.2091,-7.730157 -0.16177,-9.27844 l 0.086,-2.81506 h 1.72032 1.72031 l 0.0835,8.26312 c 0.0878,8.689317 0.12145,8.89252 1.56379,9.440897 0.63655,0.242026 0.72178,0.456887 0.63843,1.609532 -0.0924,1.276968 -0.14007,1.333169 -1.19099,1.403827 -0.60211,0.04048 -1.51701,-0.116228 -2.0331,-0.348245 z"
         id="path4570"
         inkscape:connector-curvature="0" />
      <path
         inkscape:connector-curvature="0"
         style="fill:#0a0d0d;stroke-width:0.33363673"
         d="m 384.14453,-54.755859 c -3.0435,2.3e-5 -5.09103,0.882024 -6.20117,2.671875 -0.69373,1.118497 -0.81916,1.791655 -0.92188,4.970703 -0.0673,2.083457 0.0451,4.280381 0.25782,5.070312 0.44216,1.64201 1.84972,3.165481 3.41211,3.691407 1.82946,0.615827 6.94167,0.336085 8.29297,-0.453126 1.28643,-0.751309 2.49618,-2.567984 2.20898,-3.316406 -0.30514,-0.795169 -3.42469,-0.678644 -3.86524,0.144532 -0.45036,0.841501 -2.44656,1.480373 -3.82031,1.222656 -1.63895,-0.30747 -2.6016,-1.505327 -2.47265,-3.076172 l 0.10546,-1.289063 5.0879,-0.0918 5.08789,-0.0918 v -2.472657 c 0,-2.819434 -0.34474,-3.966846 -1.57813,-5.259765 -1.16516,-1.221367 -2.78806,-1.720724 -5.59375,-1.720703 z m 0.16602,2.796875 c 2.1658,0 3.43635,1.070367 3.27343,2.757812 l -0.10351,1.080078 -3.01953,0.09375 c -1.66038,0.05227 -3.12321,-0.0099 -3.25196,-0.138672 -0.52721,-0.527222 -0.20139,-2.187288 0.58399,-2.972656 0.655,-0.654998 1.15907,-0.820312 2.51758,-0.820312 z"
         transform="scale(0.9375)"
         id="path4568" />
      <path
         style="fill:#0a0d0d;stroke-width:0.31278443"
         d="m 427.36751,-35.971395 c -0.0839,-0.218599 -0.11464,-3.702236 -0.0684,-7.741415 l 0.0841,-7.343962 1.01655,-0.09801 1.01655,-0.09801 v 7.839428 7.839429 h -0.94817 c -0.52148,0 -1.0168,-0.178853 -1.10069,-0.397452 z"
         id="path4564"
         inkscape:connector-curvature="0" />
      <path
         style="fill:#0a0d0d;stroke-width:0.31278443"
         d="m 278.54637,-53.974642 c -1.57793,-1.743589 0.85963,-3.778201 2.85338,-2.381716 1.41078,0.988155 0.48428,2.953717 -1.39227,2.953717 -0.51891,0 -1.17638,-0.257399 -1.46111,-0.572001 z"
         id="path4562"
         inkscape:connector-curvature="0" />
      <path
         style="fill:#0a0d0d;stroke-width:0.31278443"
         d="m 427.55518,-54.578322 c -1.17328,-0.95008 -0.016,-2.292288 1.54841,-1.795771 0.81787,0.25958 0.83138,1.588163 0.0206,2.022095 -0.78121,0.41809 -0.77139,0.419504 -1.56896,-0.226324 z"
         id="path4560"
         inkscape:connector-curvature="0" />
    </g>
    <g
       id="g4692">
      <path
         style="fill:#b8a246;stroke-width:0.31278443"
         d="M -28.751097,69.454044 C -28.096752,68.79968 -12.704818,65.554739 -0.64385086,63.528443 29.970331,58.385132 67.216481,55.551496 104.45171,55.532923 c 23.83308,-0.01189 51.32421,1.317163 71.00207,3.432577 1.46226,0.157196 4.13657,0.444351 5.9429,0.638121 2.96047,0.317579 6.17724,0.710756 12.66777,1.548355 13.3137,1.718125 34.1205,5.512387 41.4957,7.567027 2.30394,0.641847 2.47569,0.737224 1.47788,0.820706 -0.62097,0.05195 -2.87302,-0.19108 -5.00455,-0.540072 -4.68942,-0.767789 -16.00531,-2.3849 -19.67114,-2.811131 -17.80966,-2.070752 -26.49112,-2.920688 -38.47248,-3.766547 -47.75878,-3.371691 -90.8047,-3.371691 -138.563503,0 -12.003008,0.847389 -20.14291,1.643995 -38.4724832,3.76508 -3.5278955,0.408246 -17.2996688,2.386445 -20.6065508,2.959963 -2.534742,0.439606 -5.300914,0.609526 -4.99842,0.307042 z"
         id="path4610"
         inkscape:connector-curvature="0" />
      <path
         style="fill:#b8a246;stroke-width:0.31278443"
         d="M 72.582485,53.504181 C 68.554072,51.546939 64.924709,49.0093 59.097973,44.075826 55.546275,41.068611 49.141826,33.195767 49.496149,32.272478 c 0.09058,-0.236074 0.735199,-0.520455 1.432458,-0.63195 1.658227,-0.265163 2.852031,-0.823039 2.852031,-1.332771 0,-0.224514 -0.516157,-1.347253 -1.147043,-2.494981 L 51.486583,25.726 48.725698,25.904869 c -3.145517,0.203788 -3.44579,0.05611 -4.060974,-1.997204 -0.447376,-1.493167 -0.222265,-1.792029 1.948991,-2.587506 2.323582,-0.851286 2.641433,-1.189353 2.28195,-2.427032 l -0.307123,-1.057308 h -3.108671 -3.10867 l -0.609836,-2.114973 c -0.424573,-1.472433 -0.510433,-2.214404 -0.282569,-2.442255 0.180007,-0.180005 1.290986,-0.528916 2.46887,-0.775359 2.811713,-0.588288 3.086994,-0.886396 2.816686,-3.0500699 -0.343562,-2.7496816 -0.57984,-2.916721 -3.48642,-2.4648414 -3.267909,0.5080464 -3.280452,0.4929952 -3.356427,-4.028119 l -0.05977,-3.55618375 2.731952,-0.98542105 c 1.502586,-0.5419803 2.924222,-1.1449661 3.159186,-1.3399653 0.268275,-0.2226713 0.500955,-1.3727452 0.625537,-3.0920148 0.109068,-1.5056097 0.326078,-3.1760693 0.482189,-3.7121349 0.490039,-1.6824829 0.09127,-1.8839009 -2.520386,-1.2730299 -3.551448,0.83069 -3.507377,0.847881 -3.259245,-1.271134 0.115824,-0.98918 0.844518,-3.698675 1.619316,-6.0211 4.437285,-13.300572 12.714249,-23.975676 24.586545,-31.710181 2.745027,-1.788301 10.064839,-5.506998 10.845205,-5.509701 0.651311,-0.0022 5.733433,-1.561357 6.614265,-2.029139 0.430078,-0.228395 2.61175,-0.744683 4.848158,-1.147305 3.726107,-0.67081 4.903397,-0.730615 14.075293,-0.714991 9.66057,0.01645 10.14904,0.04664 14.02757,0.866741 7.93985,1.678858 15.73484,4.799042 21.59999,8.646043 8.92402,5.853379 16.33551,14.119833 20.95658,23.374136 6.58127,13.179803 8.1389,27.5298553 4.55164,41.932821 -2.66636,10.705528 -8.26952,20.327856 -16.44983,28.249337 -4.0159,3.888871 -6.93725,6.075125 -12.46915,9.331576 l -1.87671,1.104761 -26.27389,0.03228 c -14.450637,0.01777 -27.751794,0.135595 -29.558124,0.261866 l -3.284236,0.229584 z"
         id="path4227"
         inkscape:connector-curvature="0" />
      <path
         style="fill:#0a0d0d;stroke-width:0.31278443"
         d="m -19.06629,67.588848 c 0.201589,-0.201612 10.2676489,-2.190602 16.5457326,-3.269336 16.2124614,-2.785717 40.1317424,-5.562117 56.7703724,-6.589551 12.795416,-0.790119 16.168296,-0.973116 23.615224,-1.281271 10.251008,-0.424186 43.152641,-0.422938 53.486131,0.0019 7.44258,0.306082 10.75181,0.485307 23.61523,1.278998 21.34184,1.316819 48.58699,4.790718 67.71757,8.634348 7.56457,1.519835 7.62503,1.885583 0.12406,0.75046 -13.32734,-2.016677 -40.23068,-4.758983 -55.39769,-5.646637 -27.66065,-1.618844 -36.2737,-1.875196 -63.00385,-1.875196 -26.658276,0 -33.729894,0.212306 -62.604025,1.879512 -4.633495,0.26754 -17.621868,1.277965 -21.958936,1.708285 -11.4764673,1.138688 -27.1469042,2.982559 -33.435341,3.93419 -3.92263,0.593611 -5.752293,0.75214 -5.474478,0.474322 z"
         id="path4558"
         inkscape:connector-curvature="0" />
      <path
         style="fill:#0a0d0d;stroke-width:0.31278443"
         d="m 71.922135,52.675305 c -3.030756,-1.65152 -7.506827,-4.569514 -7.506827,-4.893787 0,-0.138614 1.864978,-1.078184 4.144394,-2.087933 5.788701,-2.564304 17.733876,-8.60317 24.76308,-12.518931 5.844127,-3.255591 6.437166,-3.536369 6.437166,-3.047665 0,1.105033 -10.151919,15.327 -15.728803,22.034731 l -1.497142,1.800699 -4.132977,-0.0044 -4.133008,-0.0044 -2.345883,-1.278316 z"
         id="path4556"
         inkscape:connector-curvature="0" />
      <path
         style="fill:#0a0d0d;stroke-width:0.31278443"
         d="m 105.62466,53.727884 c -9.762788,-0.04588 -17.75052,-0.167202 -17.75052,-0.269607 0,-0.102403 1.029874,-1.332831 2.288581,-2.73428 1.258707,-1.40145 4.522394,-5.222396 7.252595,-8.490993 9.353254,-11.197595 12.811274,-14.047718 24.135634,-19.892708 5.99545,-3.094517 8.31841,-4.578413 11.26818,-7.198101 3.38846,-3.009296 4.19422,-4.103269 6.658,-9.0394514 1.24403,-2.4924414 2.60668,-4.9899187 3.02809,-5.54994667 0.42139,-0.56002799 2.34191,-2.07733273 4.26779,-3.37178793 1.92591,-1.2944583 4.29387,-2.9285192 5.26219,-3.6312457 1.20597,-0.8752083 2.33172,-1.3921002 3.57366,-1.6408921 0.99722,-0.1997597 1.87129,-0.5377139 1.94239,-0.7510079 0.0761,-0.2282262 -0.59367,-0.7075152 -1.62758,-1.1647563 -1.14594,-0.506798 -2.32414,-1.386492 -3.38836,-2.529956 -2.23994,-2.406658 -3.56358,-3.038329 -6.03671,-2.880848 -1.51481,0.09645 -2.31182,0.34857 -3.56539,1.127844 -0.88797,0.551993 -1.81888,1.003622 -2.06863,1.003622 -0.49827,0 -3.72983,-4.738943 -5.16723,-7.577465 -1.50481,-2.971655 -2.41514,-6.268463 -3.10036,-11.228069 -0.35804,-2.591591 -0.9385,-5.480478 -1.28992,-6.419744 -1.05552,-2.821065 -3.49608,-6.093238 -7.17168,-9.615334 -4.52702,-4.337976 -5.38336,-4.405875 -3.29956,-0.261632 1.56299,3.108411 4.08931,10.085693 5.00862,13.832904 1.44353,5.883834 1.59676,11.911493 0.37706,14.83066 -0.2577,0.616739 -0.58297,1.121345 -0.72288,1.121345 -0.13987,0 -0.97629,-1.091574 -1.85869,-2.425718 -5.49543,-8.308815 -23.784124,-25.736118 -35.846248,-34.157901 -1.331993,-0.930002 -2.421827,-1.80583 -2.421827,-1.946283 0,-0.140449 0.03547,-0.255366 0.07882,-0.255366 0.04335,0 1.556447,-0.28185 3.362433,-0.626332 19.286472,-3.678792 38.383682,2.023002 52.348102,15.629412 6.80622,6.631737 11.31003,13.405465 14.38126,21.629393 9.63911,25.8111204 0.53706,54.511556 -22.21369,70.043748 -3.7395,2.553006 -8.02568,4.706348 -9.15511,4.59947 -0.43918,-0.04156 -8.78624,-0.113097 -18.54902,-0.158973 z"
         id="path4554"
         inkscape:connector-curvature="0" />
      <path
         style="fill:#0a0d0d;stroke-width:0.31278443"
         d="m 58.466493,42.935871 c -3.605122,-3.454807 -8.596942,-9.61331 -8.362448,-10.316881 0.0654,-0.19616 0.813803,-0.528365 1.663169,-0.738237 3.035385,-0.750048 8.905785,-2.64326 12.544657,-4.045698 7.473514,-2.880297 18.557718,-8.846269 18.557718,-9.988511 0,-0.263946 -0.04273,-0.479902 -0.09493,-0.479902 -0.0522,0 -1.565298,0.499114 -3.362432,1.10914 -9.818647,3.332909 -24.518483,6.56776 -30.783961,6.774332 l -2.806521,0.09253 -0.540898,-1.094745 c -0.29749,-0.60211 -0.547655,-1.205312 -0.555912,-1.340451 -0.01627,-0.26571 1.15871,-0.807984 6.240643,-2.880216 7.070242,-2.882984 10.582842,-4.771363 9.788464,-5.262303 -0.138032,-0.08532 -2.572871,0.31422 -5.410702,0.887869 -4.579789,0.925777 -10.042506,1.713843 -11.87999,1.713843 -0.704296,0 -1.129746,-0.822301 -1.444782,-2.792345 -0.188797,-1.180789 -0.179507,-1.193745 1.015798,-1.415415 C 51.943436,11.5067 66.608897,5.5201879 75.510992,-0.09821166 80.846906,-3.4658896 80.952002,-4.3563555 75.774169,-2.3283615 66.316287,1.3760007 51.457088,5.4436964 43.81786,6.4196433 42.209053,6.6251802 40.775531,6.6739714 40.632276,6.52807 c -0.270621,-0.2756225 -0.521693,-6.56127881 -0.27206,-6.81091205 0.07798,-0.0779928 1.194117,-0.49068369 2.480318,-0.91709015 15.315051,-5.0773638 32.66708,-13.4407188 43.63302,-21.0302888 3.066257,-2.122164 4.110707,-3.089237 3.646378,-3.376214 -0.163492,-0.101042 -2.600427,0.739648 -5.415424,1.868202 -9.283692,3.721934 -24.150554,8.447394 -34.208106,10.873106 -6.650329,1.603949 -8.760341,2.020493 -9.014666,1.779606 -0.413282,-0.391416 1.248541,-6.408944 2.939986,-10.64589 4.489395,-11.245664 12.324738,-20.796495 22.652254,-27.611742 2.990907,-1.973726 10.017953,-5.543407 10.912423,-5.543407 0.926655,0 1.969947,1.544079 5.389275,7.976003 9.765286,18.369122 10.779771,20.120477 12.511909,21.600295 1.445314,1.234779 1.670894,1.5883 1.840361,2.884047 0.293016,2.240738 0.598075,2.729476 2.162842,3.465007 l 1.438994,0.676403 -0.51847,1.169951 c -0.28517,0.643476 -0.58256,1.620051 -0.66085,2.170173 -0.12774,0.89762 0.005,1.10432 1.29749,2.015114 0.79191,0.558192 1.43984,1.113181 1.43984,1.233312 0,0.120128 -0.27841,0.831985 -0.61869,1.581907 -0.7848,1.7295324 -0.79062,2.9756812 -0.0222,4.7680673 0.54512,1.2717408 0.83447,1.525068 2.71656,2.3784565 1.15859,0.5253152 2.8266,1.5106893 3.70675,2.1897193 1.95187,1.50585993 4.00642,2.4444134 5.92732,2.7077028 0.79441,0.1088865 1.51579,0.3134788 1.60306,0.4546478 0.0872,0.1411658 -0.25333,1.07159 -0.75679,2.0676082 C 111.83502,11.59123 101.68216,20.879836 87.323139,30.178763 79.034665,35.546388 62.257972,44.893694 60.917784,44.890773 60.691078,44.890147 59.588075,44.010572 58.466618,42.93587 Z"
         id="path4219"
         inkscape:connector-curvature="0" />
    </g>
  </g>
</svg>
