<?xml version="1.0" encoding="UTF-8" standalone="no"?>
<svg
   xmlns:dc="http://purl.org/dc/elements/1.1/"
   xmlns:cc="http://creativecommons.org/ns#"
   xmlns:rdf="http://www.w3.org/1999/02/22-rdf-syntax-ns#"
   xmlns:svg="http://www.w3.org/2000/svg"
   xmlns="http://www.w3.org/2000/svg"
   xmlns:sodipodi="http://sodipodi.sourceforge.net/DTD/sodipodi-0.dtd"
   xmlns:inkscape="http://www.inkscape.org/namespaces/inkscape"
   version="1.1"
   id="svg2"
   viewBox="0 0 266.39037 160"
   height="45.155556mm"
   width="75.181282mm"
   inkscape:version="0.91 r13725"
   sodipodi:docname="logo-white.svg">
  <sodipodi:namedview
     pagecolor="#ffffff"
     bordercolor="#666666"
     borderopacity="1"
     objecttolerance="10"
     gridtolerance="10"
     guidetolerance="10"
     inkscape:pageopacity="0"
     inkscape:pageshadow="2"
     inkscape:window-width="1887"
     inkscape:window-height="1056"
     id="namedview10"
     showgrid="false"
     inkscape:zoom="4.3695273"
     inkscape:cx="108.472"
     inkscape:cy="106.45392"
     inkscape:window-x="33"
     inkscape:window-y="24"
     inkscape:window-maximized="1"
     inkscape:current-layer="svg2" />
  <defs
     id="defs4" />
  <metadata
     id="metadata7">
    <rdf:RDF>
      <cc:Work
         rdf:about="">
        <dc:format>image/svg+xml</dc:format>
        <dc:type
           rdf:resource="http://purl.org/dc/dcmitype/StillImage" />
        <dc:title></dc:title>
      </cc:Work>
    </rdf:RDF>
  </metadata>
  <path
     style="fill:#b8a246"
     d="M 132.44336 0.001953125 C 123.27146 -0.013670455 122.09525 0.045986895 118.36914 0.71679688 C 116.62047 1.0316129 114.93501 1.4100376 114.06445 1.671875 C 114.6531 1.5617767 114.76992 1.5446946 115.58789 1.3886719 C 119.2041 0.69889831 122.81249 0.33875852 126.38281 0.29882812 C 141.85419 0.12579663 156.58943 5.9623701 167.93555 17.017578 C 174.74177 23.649315 179.24518 30.424509 182.31641 38.648438 C 191.95552 64.459557 182.85427 93.159207 160.10352 108.69141 C 156.36402 111.24442 152.0767 113.3979 150.94727 113.29102 C 150.50809 113.24942 142.16122 113.17871 132.39844 113.13281 C 122.63565 113.08691 114.64844 112.96569 114.64844 112.86328 C 114.64844 112.76088 115.67879 111.53036 116.9375 110.12891 C 118.19621 108.72746 121.45924 104.90531 124.18945 101.63672 C 133.5427 90.43912 136.99986 87.589131 148.32422 81.744141 C 154.31967 78.649624 156.64398 77.166563 159.59375 74.546875 C 162.98221 71.537579 163.78817 70.443995 166.25195 65.507812 C 167.49598 63.015373 168.85789 60.517059 169.2793 59.957031 C 169.70069 59.397003 171.62098 57.880392 173.54688 56.585938 C 175.47277 55.291478 177.84027 53.655852 178.80859 52.953125 C 180.01456 52.077917 181.14087 51.561292 182.38281 51.3125 C 183.38003 51.11274 184.25312 50.775794 184.32422 50.5625 C 184.40032 50.334274 183.73118 49.853725 182.69727 49.396484 C 181.55133 48.889686 180.37281 48.01065 179.30859 46.867188 C 177.06865 44.460529 175.74657 43.828847 173.27344 43.986328 C 171.75863 44.082778 170.9606 44.33596 169.70703 45.115234 C 168.81906 45.667227 167.88842 46.117187 167.63867 46.117188 C 167.1404 46.117188 163.9081 41.379538 162.4707 38.541016 C 160.96589 35.569361 160.05631 32.272106 159.37109 27.3125 C 159.01305 24.720909 158.4315 21.831844 158.08008 20.892578 C 157.02456 18.071513 154.58576 14.79944 150.91016 11.277344 C 146.38314 6.9393672 145.52558 6.8713817 147.60938 11.015625 C 149.17235 14.124036 151.69983 21.100445 152.61914 24.847656 C 154.06267 30.73149 154.21579 36.76052 152.99609 39.679688 C 152.73839 40.296427 152.41335 40.800781 152.27344 40.800781 C 152.13357 40.800781 151.29646 39.709144 150.41406 38.375 C 144.91863 30.066185 126.63049 12.63858 114.56836 4.2167969 C 113.37908 3.386438 112.42835 2.630047 112.22852 2.3710938 C 110.39973 3.0078376 107.39737 3.8909267 106.90625 3.8925781 C 106.69978 3.8932931 106.00602 4.1734468 105.08984 4.5898438 C 105.96022 4.9447213 107.12582 6.8047543 110.15039 12.494141 C 119.91568 30.863263 120.92998 32.613932 122.66211 34.09375 C 124.10743 35.328529 124.33249 35.682769 124.50195 36.978516 C 124.79497 39.219254 125.09929 39.707828 126.66406 40.443359 L 128.10352 41.119141 L 127.58594 42.289062 C 127.30077 42.932539 127.00213 43.908862 126.92383 44.458984 C 126.79609 45.356604 126.93017 45.563815 128.22266 46.474609 C 129.01457 47.032801 129.66211 47.5869 129.66211 47.707031 C 129.66211 47.827159 129.38325 48.539141 129.04297 49.289062 C 128.25816 51.018595 128.25306 52.266208 129.02148 54.058594 C 129.5666 55.330335 129.85619 55.582158 131.73828 56.435547 C 132.89687 56.960862 134.56321 57.947923 135.44336 58.626953 C 137.39523 60.132813 139.45019 61.070694 141.37109 61.333984 C 142.1655 61.44287 142.88731 61.647894 142.97461 61.789062 C 143.06181 61.930229 142.72026 62.859451 142.2168 63.855469 C 138.60802 70.994845 128.45668 80.283104 114.09766 89.582031 C 106.61161 94.429997 92.238854 102.50169 88.53125 104.02148 C 89.709135 105.00945 90.847478 105.9532 91.867188 106.75586 C 92.599461 106.35966 93.849406 105.7553 95.333984 105.09766 C 101.12268 102.53336 113.0665 96.493886 120.0957 92.578125 C 124.4788 90.136432 125.90887 89.36915 126.34961 89.34375 C 126.4965 89.335282 126.5332 89.409074 126.5332 89.53125 C 126.5332 90.636283 116.38157 104.85868 110.80469 111.56641 L 109.30859 113.36719 L 105.17578 113.36328 L 102.28711 113.36133 L 103.66797 114.03125 L 106.95117 113.80078 C 108.7575 113.67451 122.05913 113.55686 136.50977 113.53906 L 162.7832 113.50781 L 164.66016 112.40234 C 170.19206 109.14589 173.11301 106.95918 177.12891 103.07031 C 185.30922 95.148835 190.91372 85.527794 193.58008 74.822266 C 197.16734 60.4193 195.60861 46.068475 189.02734 32.888672 C 184.40627 23.634369 176.99433 15.369004 168.07031 9.515625 C 162.20516 5.6686238 154.41055 2.5479985 146.4707 0.86914062 C 142.59217 0.049038635 142.10393 0.018405585 132.44336 0.001953125 z M 116.89453 33.796875 C 116.73104 33.695833 114.29352 34.537462 111.47852 35.666016 C 102.19483 39.38795 87.327083 44.113352 77.269531 46.539062 C 73.29182 47.498422 71.066949 47.993714 69.763672 48.216797 C 69.76671 49.190575 70.339573 49.055025 73.113281 48.40625 C 75.724937 47.795379 76.124805 47.995251 75.634766 49.677734 C 75.478655 50.2138 75.261412 51.885015 75.152344 53.390625 C 75.027762 55.109894 74.795619 56.25975 74.527344 56.482422 C 74.526404 56.483202 74.522462 56.485535 74.521484 56.486328 C 88.521968 51.364659 103.43852 43.963037 113.24805 37.173828 C 116.31431 35.051664 117.35886 34.083852 116.89453 33.796875 z M 106.14844 56.001953 C 105.68991 55.964847 104.49051 56.315674 102.54883 57.076172 C 93.090941 60.780534 78.231025 64.848272 70.591797 65.824219 C 69.996397 65.900287 69.49672 65.929905 69.005859 65.960938 C 69.357751 66.799497 70.154473 66.687692 72.052734 66.392578 C 74.959314 65.940698 75.1955 66.10774 75.539062 68.857422 C 75.736863 70.440708 75.631417 71.023052 74.464844 71.453125 C 83.251342 69.004274 94.799802 64.030887 102.28516 59.306641 C 105.62011 57.201842 106.91265 56.063797 106.14844 56.001953 z M 73.025391 71.839844 C 72.919654 71.862872 72.834636 71.884365 72.720703 71.908203 C 72.526013 71.948937 72.376585 71.999814 72.189453 72.044922 C 72.465613 71.978704 72.741885 71.912212 73.025391 71.839844 z M 87.527344 74.169922 C 87.389312 74.084602 84.955017 74.482992 82.117188 75.056641 C 77.973777 75.894206 73.244673 76.588066 70.994141 76.71875 L 71.144531 77.240234 L 74.253906 77.240234 L 77.363281 77.240234 L 77.669922 78.296875 C 77.817651 78.805499 77.839255 79.160067 77.666016 79.462891 C 77.696042 79.450642 77.70993 79.443998 77.740234 79.431641 C 84.810476 76.548657 88.321722 74.660862 87.527344 74.169922 z M 109.54883 76.771484 C 109.49663 76.771484 107.98268 77.270833 106.18555 77.880859 C 96.366891 81.213768 81.667822 84.447725 75.402344 84.654297 L 74.019531 84.699219 C 74.518635 85.406943 75.326318 85.44942 77.5 85.308594 L 80.259766 85.130859 L 81.408203 87.216797 C 82.039089 88.364525 82.554688 89.486424 82.554688 89.710938 C 82.554688 89.897586 82.391745 90.090613 82.107422 90.273438 C 85.070694 89.376205 88.586515 88.20157 91.085938 87.238281 C 98.559459 84.357984 109.64258 78.392242 109.64258 77.25 C 109.64258 76.986054 109.60103 76.771484 109.54883 76.771484 z M 133.22461 114.9375 C 95.98938 114.95607 58.745041 117.78833 28.130859 122.93164 C 16.069892 124.95793 0.6777825 128.20305 0.0234375 128.85742 C -0.27905631 129.1599 2.486742 128.99038 5.0214844 128.55078 C 8.3283664 127.97726 22.099057 126.00005 25.626953 125.5918 C 43.956526 123.47072 52.096601 122.67356 64.099609 121.82617 C 111.85841 118.45448 154.90528 118.45448 202.66406 121.82617 C 214.64542 122.67203 223.32706 123.52105 241.13672 125.5918 C 244.80255 126.01803 256.11722 127.63651 260.80664 128.4043 C 262.93817 128.75329 265.19153 128.99536 265.8125 128.94336 C 266.81031 128.85988 266.63792 128.76489 264.33398 128.12305 C 256.95878 126.06841 236.15159 122.27476 222.83789 120.55664 C 216.34736 119.71904 213.13039 119.32539 210.16992 119.00781 C 208.36359 118.81404 205.69078 118.52634 204.22852 118.36914 C 184.55066 116.25373 157.05769 114.9256 133.22461 114.9375 z M 78.644531 137.76367 C 76.604426 137.76367 75.563747 139.845 76.923828 141.20508 C 77.311086 141.59234 77.966852 141.83008 78.644531 141.83008 C 80.684667 141.83008 81.725315 139.74874 80.365234 138.38867 C 79.977976 138.00141 79.322241 137.76367 78.644531 137.76367 z M 243.16992 137.91992 L 243.08008 141.00391 C 242.992 144.02417 242.97484 144.08209 242.29688 143.87305 C 238.00732 142.55035 234.83824 143.27967 233.31445 145.94141 C 232.58553 147.21455 232.53516 147.58912 232.53516 151.68359 C 232.53516 155.50004 232.61497 156.19743 233.16016 157.12305 C 233.93076 158.43133 235.09263 159.32507 236.48242 159.67578 C 238.02708 160.06556 240.4226 159.77199 241.6582 159.04297 C 243.00636 158.24753 243.21133 158.24962 243.42188 159.05469 C 243.55768 159.57396 243.79616 159.68166 244.63086 159.60156 L 245.67188 159.50195 L 245.67188 148.71094 L 245.67188 137.91992 L 244.41992 137.91992 L 243.16992 137.91992 z M 144.14648 138.11914 C 143.4175 138.13237 143.00999 138.2414 142.87695 138.45117 C 142.53833 138.98505 142.55883 154.09338 142.90039 155.86133 C 143.23911 157.61456 144.11379 158.77921 145.45312 159.25781 C 146.03914 159.46722 147.0814 159.60771 147.76953 159.57031 L 149.02148 159.50195 L 149.02148 157.78711 C 149.02148 156.31721 148.93234 156.05373 148.39648 155.95703 C 148.05242 155.89497 147.62906 155.71051 147.45703 155.54688 C 147.27136 155.37026 147.08118 151.79324 146.98828 146.74219 L 146.83203 138.23242 L 144.98438 138.13867 C 144.66776 138.12235 144.38948 138.11473 144.14648 138.11914 z M 226.8457 138.13867 C 226.4554 138.16454 226.07621 138.30514 225.7832 138.57031 C 225.01986 139.26099 225.02706 139.79462 225.81055 140.57812 C 226.64196 141.40954 227.23979 141.36765 228.19922 140.4082 C 228.92813 139.6793 228.95557 139.55286 228.53906 138.92188 C 228.17565 138.37134 227.49621 138.09555 226.8457 138.13867 z M 30.476562 138.23242 L 30.384766 141.00391 C 30.295904 143.71383 30.279631 143.76738 29.603516 143.51953 C 29.223421 143.38018 27.786407 143.25995 26.410156 143.25195 C 24.275527 143.23966 23.757998 143.34396 22.884766 143.9668 C 21.010155 145.30387 20.623047 146.56789 20.623047 151.36719 C 20.623047 155.95737 20.88796 157.07868 22.273438 158.35547 C 22.709397 158.7572 23.608117 159.28753 24.269531 159.5332 C 25.715752 160.07036 27.890881 159.91131 29.482422 159.15234 C 30.578606 158.62998 30.653872 158.62897 31.035156 159.15039 C 31.343468 159.57208 31.791787 159.67521 32.988281 159.59961 L 34.542969 159.50195 L 34.542969 148.86719 L 34.542969 138.23242 L 32.509766 138.23242 L 30.476562 138.23242 z M 173.73047 140.10938 L 172.16797 140.12109 C 169.26039 140.14293 169.45552 139.51159 169.56641 148.47461 C 169.65114 155.32359 169.73856 156.50994 170.21875 157.38867 C 170.85852 158.5594 171.91235 159.32696 173.34766 159.66797 C 176.14949 160.33366 177.1209 159.85806 176.95703 157.90234 C 176.87389 156.9104 176.71993 156.69261 175.96484 156.49219 C 174.03449 155.97984 173.88672 155.59349 173.88672 151.04297 C 173.88672 146.53771 173.89329 146.52148 175.75586 146.52148 C 176.70635 146.52148 177.01562 146.06539 177.01562 144.6582 C 177.01563 143.57237 176.54196 143.16263 175.13672 143.0293 C 174.09214 142.93019 174.03614 142.86213 173.88672 141.51758 L 173.73047 140.10938 z M 66.527344 143.07812 C 65.527544 143.06487 64.48872 143.2737 63.507812 143.71875 L 62.132812 144.3418 L 61.679688 143.69531 C 61.312041 143.17046 60.954185 143.06618 59.771484 143.14258 L 58.314453 143.23828 L 58.230469 151.05078 C 58.184393 155.34847 58.217638 159.05055 58.304688 159.27734 C 58.416446 159.56866 58.992436 159.662 60.265625 159.5957 L 62.066406 159.50195 L 62.226562 153.87305 C 62.314486 150.77648 62.498174 148.01408 62.634766 147.73633 C 63.23966 146.50621 65.757297 146.14729 66.958984 147.11914 C 67.676511 147.69941 67.701566 147.88314 67.853516 153.60938 L 68.009766 159.50195 L 70.042969 159.50195 L 72.076172 159.50195 L 72.173828 154.3418 C 72.284835 148.5011 71.959891 146.36391 70.738281 144.91211 C 69.749921 143.7375 68.193676 143.10021 66.527344 143.07812 z M 102.29883 143.08203 C 101.34493 143.0496 100.39268 143.12524 100.26367 143.33398 C 100.14478 143.52631 104.25786 156.76603 105.19531 159.20898 C 105.4187 159.79104 108.92886 159.84064 109.35547 159.26758 C 109.72418 158.77231 110.55052 155.97363 111.01562 153.64258 C 111.21241 152.6564 111.49451 151.77509 111.64258 151.68359 C 111.95211 151.49229 112.01541 151.6831 112.85352 155.2793 C 113.89478 159.74738 113.83195 159.6582 115.97656 159.6582 C 117.07934 159.6582 117.94733 159.50112 118.13281 159.26758 C 118.64684 158.62048 123.26902 143.73184 123.06055 143.39453 C 122.95429 143.22261 122.1039 143.08203 121.17188 143.08203 C 119.75831 143.08203 119.40126 143.19856 119.01562 143.78711 C 118.61257 144.4022 117.0038 149.9907 116.48242 152.58789 C 116.38245 153.08586 116.19334 153.3668 116.0625 153.21289 C 115.93166 153.05899 115.35744 151.03337 114.78711 148.71094 C 113.31155 142.70239 113.49151 143.02911 111.72266 143.14258 L 110.23633 143.23828 L 109.22656 146.36523 C 108.67153 148.08554 108.0633 150.30184 107.875 151.29102 C 107.68671 152.2802 107.41769 153.08984 107.27734 153.08984 C 107.13696 153.08984 106.84759 152.16695 106.63477 151.03906 C 106.24357 148.96575 104.79961 144.19273 104.3457 143.47266 C 104.20842 143.25486 103.25272 143.11447 102.29883 143.08203 z M 91.164062 143.11914 C 90.847954 143.12076 90.518325 143.13241 90.173828 143.1543 C 86.726725 143.37328 84.70285 144.90431 84.625 147.35352 L 84.587891 148.55469 L 86.542969 148.64844 C 87.805585 148.70859 88.498047 148.61928 88.498047 148.39844 C 88.498047 148.21038 88.843366 147.71132 89.265625 147.28906 C 90.934111 145.62055 93.97362 146.85163 93.755859 149.10742 L 93.658203 150.11914 L 91 150.30273 C 86.000516 150.64811 83.97955 152.24136 84.199219 155.66602 C 84.326553 157.65117 85.075234 158.77278 86.777344 159.5293 C 88.319621 160.21478 90.69112 160.07299 92.431641 159.19141 L 93.970703 158.41211 L 94.457031 159.05664 C 94.845228 159.57063 95.224193 159.68076 96.333984 159.60156 L 97.724609 159.50195 L 97.818359 153.71484 C 97.925738 147.14055 97.727769 146.06387 96.160156 144.6875 C 94.920329 143.5989 93.376825 143.10778 91.164062 143.11914 z M 208.85547 143.12109 C 208.56277 143.1233 208.25974 143.13609 207.94727 143.1582 C 205.22207 143.35107 203.51266 144.29823 202.64062 146.09961 C 202.05631 147.30661 202.00285 147.9004 202.09375 152.11914 C 202.20927 157.4767 202.41382 158.00642 204.87109 159.28906 C 206.08879 159.9247 206.61049 159.99984 209.08984 159.90234 C 212.54044 159.76668 213.76024 159.18032 214.7832 157.16211 C 215.40837 155.92882 215.48828 155.30622 215.48828 151.60547 C 215.48828 146.93695 215.21035 145.88301 213.63867 144.56055 C 212.47263 143.57937 210.90436 143.10562 208.85547 143.12109 z M 131.87305 143.19922 C 130.29108 143.18568 128.7053 143.39246 127.83594 143.82227 C 126.39975 144.53231 125.40625 146.06477 125.40625 147.57422 L 125.40625 148.71094 L 127.27539 148.71094 C 129.01788 148.71094 129.17517 148.65019 129.60938 147.81055 C 130.13075 146.8023 130.65655 146.52148 132.02148 146.52148 C 133.38626 146.52148 134.06763 147.00105 134.48047 148.25195 C 135.06391 150.01983 134.79556 150.27539 132.35352 150.27539 C 128.13497 150.27539 125.41678 151.82871 124.91016 154.5293 C 124.5834 156.27108 125.57216 158.37278 127.13477 159.25781 C 128.89068 160.25232 131.3662 160.22228 133.17969 159.18555 C 134.82982 158.24223 134.98329 158.23253 135.19727 159.05078 C 135.34459 159.61415 135.57212 159.68126 137.0332 159.59766 L 138.69922 159.50195 L 138.79492 154.6543 C 138.94887 146.84275 138.52326 145.26725 135.88477 143.89062 C 135.03274 143.44608 133.45501 143.21276 131.87305 143.19922 z M 158.94141 143.20508 C 157.42422 143.18331 155.9126 143.41818 154.96484 143.91797 C 152.30689 145.31961 151.6785 146.79225 151.6875 151.59375 C 151.697 156.47491 152.50744 158.17229 155.33398 159.22266 C 156.12904 159.51808 157.4687 159.63537 159.34375 159.57227 C 162.67913 159.46002 164.47502 158.66338 165.29492 156.93555 C 166.10282 155.23305 165.84934 154.82545 163.91211 154.71484 C 162.48249 154.63322 162.10724 154.73288 161.41211 155.38477 C 160.30767 156.4205 158.89656 156.67905 157.50977 156.09961 C 156.38293 155.62879 155.88414 154.70212 156.11328 153.50586 C 156.212 152.99043 156.6865 152.91824 160.91016 152.77734 L 165.59961 152.62109 L 165.68555 150.11914 C 165.79847 146.8757 165.03295 145.17681 162.94336 144.0332 C 161.98003 143.50599 160.4586 143.22685 158.94141 143.20508 z M 192.15234 143.20703 C 190.34909 143.286 188.58014 143.75244 187.60352 144.57422 C 186.05023 145.88121 185.77344 146.94784 185.77344 151.60547 C 185.77344 155.3041 185.85181 155.92904 186.47656 157.16797 C 186.99069 158.18751 187.55665 158.75346 188.57617 159.26758 C 190.43558 160.20522 194.35608 160.25084 196.32422 159.35742 C 197.90434 158.64012 198.90716 157.14718 198.91016 155.51367 C 198.91132 154.36133 198.88964 154.3418 197.70703 154.3418 C 196.59352 154.3418 196.46752 154.43441 196.01367 155.58984 C 195.45323 157.01659 194.59818 157.46875 192.46289 157.46875 C 190.62047 157.46875 189.36534 156.7876 188.93555 155.55469 C 188.48251 154.25628 188.48804 148.77886 188.94336 147.47266 C 189.52164 145.81389 191.69319 145.18915 194.33203 145.92188 C 195.32187 146.19673 195.62646 146.47878 196.02148 147.48438 C 196.46585 148.61563 196.59715 148.71094 197.70703 148.71094 C 198.85677 148.71094 198.9082 148.66629 198.9082 147.69531 C 198.90679 146.48829 197.99563 144.88046 196.9082 144.16797 C 195.79378 143.43777 193.9556 143.12806 192.15234 143.20703 z M 39.236328 143.23828 L 39.236328 149.49219 C 39.237798 155.32576 39.283857 155.83617 39.921875 157.03125 C 40.660734 158.41523 41.795389 159.31311 43.292969 159.69727 L 43.294922 159.69727 C 44.59695 160.03126 46.608071 159.78606 47.990234 159.12695 C 49.097647 158.59887 49.165598 158.59999 49.556641 159.13477 C 49.878716 159.57523 50.317613 159.67306 51.636719 159.59766 L 53.310547 159.50195 L 53.310547 151.36914 L 53.310547 143.23828 L 51.277344 143.23828 L 49.244141 143.23828 L 49.087891 149.07031 C 48.952737 154.11114 48.85599 154.98831 48.369141 155.52539 C 47.221973 156.7909 44.545086 156.59055 43.814453 155.18555 C 43.593815 154.76132 43.426696 152.33474 43.378906 148.86719 L 43.300781 143.23828 L 41.267578 143.23828 L 39.236328 143.23828 z M 227.32422 143.4082 C 227.14002 143.40831 226.92954 143.42813 226.68945 143.45117 L 225.6543 143.55078 L 225.57031 151.20703 C 225.5242 155.41855 225.55487 159.04343 225.63867 159.26172 C 225.83188 159.76515 227.75224 159.78097 228.25 159.2832 C 228.52081 159.0124 228.625 156.84511 228.625 151.50195 C 228.625 144.34593 228.61358 143.40748 227.32422 143.4082 z M 76.767578 143.55078 L 76.683594 151.20703 C 76.637457 155.41855 76.670732 159.0504 76.757812 159.27734 C 76.869727 159.56893 77.44503 159.6621 78.71875 159.5957 L 80.521484 159.50195 L 80.521484 151.52539 L 80.521484 143.55078 L 78.644531 143.55078 L 76.767578 143.55078 z M 208.79492 145.58398 C 210.51445 145.58398 210.93727 145.69702 211.56641 146.32617 C 212.49826 147.25803 212.80449 149.16258 212.59961 152.75586 C 212.41885 155.92641 212.0716 156.73541 210.625 157.33984 C 208.387 158.27494 206.05778 157.55848 205.2793 155.69531 C 204.90351 154.79667 204.81609 153.66523 204.90039 150.80859 C 205.0074 147.18443 205.03144 147.07358 205.88672 146.33789 C 206.61895 145.70807 207.10041 145.58398 208.79492 145.58398 z M 239.21875 145.89648 C 240.7584 145.89648 241.26106 146.03349 241.97852 146.65039 C 242.8491 147.39881 242.85742 147.43524 242.85742 151.13672 C 242.85742 154.98889 242.59498 156.05542 241.47656 156.75391 C 240.81142 157.16923 238.45338 157.46644 237.4668 157.25977 C 237.08314 157.1794 236.48615 156.75232 236.13867 156.31055 C 235.58165 155.60245 235.50586 155.04806 235.50586 151.61719 C 235.50586 147.73291 235.50737 147.7231 236.41992 146.81055 C 237.228 146.00247 237.55423 145.89648 239.21875 145.89648 z M 27.646484 146.50586 C 28.333893 146.51235 29.024172 146.7605 29.552734 147.28906 C 30.271483 148.00782 30.320312 148.26835 30.320312 151.37891 C 30.320312 154.63412 30.30008 154.72142 29.404297 155.61719 C 28.187534 156.83397 26.41143 156.75806 25.320312 155.44336 C 24.735562 154.73875 24.494797 149.77804 24.974609 148.32422 C 25.359901 147.15676 26.500803 146.49504 27.646484 146.50586 z M 158.4043 146.57422 C 160.05044 146.39284 161.83282 147.37589 161.63086 148.79688 C 161.53903 149.44298 161.34822 149.50078 159.01562 149.58398 C 157.63142 149.63338 156.40038 149.57421 156.2793 149.45312 C 155.79205 148.96585 156.10464 147.78204 156.88281 147.16992 C 157.32276 146.82386 157.85558 146.63468 158.4043 146.57422 z M 132.90234 153.08984 C 134.36314 153.08984 134.47656 153.14592 134.47656 153.85547 C 134.47656 154.27596 134.15448 154.99262 133.76172 155.44922 C 132.79302 156.5754 130.57541 156.86058 129.50781 155.99609 C 127.90317 154.69672 129.77941 153.08984 132.90234 153.08984 z M 92.029297 153.0957 C 92.756535 153.07247 93.369388 153.14478 93.570312 153.3457 C 94.085562 153.86094 93.256252 155.54168 92.222656 156.07617 C 89.757321 157.35105 86.971333 155.5364 88.822266 153.86133 C 89.288334 153.43954 90.817233 153.13442 92.029297 153.0957 z M 220.30273 156.84375 C 219.57172 156.84375 218.61523 157.74664 218.61523 158.4375 C 218.61523 158.74515 218.92824 159.21657 219.31055 159.48438 C 220.20058 160.1078 220.77044 160.09921 221.48438 159.45312 C 222.62772 158.4184 221.91438 156.84375 220.30273 156.84375 z M 181.29688 156.89648 C 180.97616 156.88541 180.62947 156.94894 180.27734 157.10938 C 179.3849 157.51599 179.27415 158.5595 180.03516 159.40039 C 180.69279 160.12691 181.44766 160.12563 182.3457 159.39844 C 183.58955 158.39121 182.68664 156.94445 181.29688 156.89648 z "
     id="path4227" />
</svg>
