<?xml version="1.0" encoding="UTF-8" standalone="no"?>
<svg
   xmlns:dc="http://purl.org/dc/elements/1.1/"
   xmlns:cc="http://creativecommons.org/ns#"
   xmlns:rdf="http://www.w3.org/1999/02/22-rdf-syntax-ns#"
   xmlns:svg="http://www.w3.org/2000/svg"
   xmlns="http://www.w3.org/2000/svg"
   version="1.1"
   id="svg2"
   viewBox="0 0 266.39037 160"
   height="45.155556mm"
   width="75.181282mm">
  <defs
     id="defs4" />
  <metadata
     id="metadata7">
    <rdf:RDF>
      <cc:Work
         rdf:about="">
        <dc:format>image/svg+xml</dc:format>
        <dc:type
           rdf:resource="http://purl.org/dc/dcmitype/StillImage" />
        <dc:title></dc:title>
      </cc:Work>
    </rdf:RDF>
  </metadata>
  <g
     transform="translate(-242.63718,-185.31371)"
     id="layer1">
    <g
       id="g4249">
      <g
         id="g4245"
         transform="matrix(0.31278442,0,0,0.31278442,-131.65229,147.98361)">
        <path
           style="fill:#b8a246"
           d="m 1274.2266,629.38931 c -2.1146,-0.78544 -4.9851,-2.47892 -6.3789,-3.76331 -4.4295,-4.08199 -5.2763,-7.66774 -5.2763,-22.34296 0,-15.34377 1.2341,-19.38333 7.2274,-23.65807 2.7918,-1.99126 4.448,-2.32744 11.2726,-2.28816 4.4,0.0253 8.9943,0.41054 10.2095,0.85604 2.1616,0.79242 2.2159,0.61782 2.5,-8.04604 l 0.2905,-8.85605 6.5,0 6.5,0 0,34 0,34 -4.9668,0.31365 c -3.8253,0.24156 -5.2611,-0.0887 -6.2468,-1.43674 -1.219,-1.66703 -1.4552,-1.66682 -4.9598,0.004 -5.0883,2.42648 -12.0477,2.93461 -16.6714,1.21726 z m 16.4217,-12.52163 c 2.8639,-2.86386 2.9231,-3.13826 2.9231,-13.54545 0,-9.94475 -0.1566,-10.77896 -2.4545,-13.07692 -4.5063,-4.50627 -12.6623,-2.66068 -14.6332,3.31127 -1.534,4.64798 -0.7628,20.50439 1.1067,22.75708 3.4884,4.20322 9.1678,4.44418 13.0579,0.55402 z m 44.4022,13.04429 c -4.7879,-1.22818 -8.4195,-4.09924 -10.7817,-8.52396 -2.0398,-3.82078 -2.1877,-5.44682 -2.1924,-24.09725 l 0,-20 6.5,0 6.5,0 0.2482,18 c 0.1528,11.08609 0.688,18.84586 1.3934,20.20216 2.3359,4.49193 10.8897,5.12733 14.5573,1.08137 1.5565,-1.71711 1.869,-4.51926 2.3011,-20.63523 l 0.5,-18.6483 6.5,0 6.5,0 0,26 0,26 -5.349,0.30569 c -4.2173,0.24102 -5.6254,-0.0722 -6.6551,-1.48046 -1.2502,-1.70972 -1.4644,-1.71067 -5.0049,-0.0223 -4.4189,2.10723 -10.8492,2.8861 -15.0119,1.8183 z m 139.0209,-0.53285 c -5.4418,-2.41866 -7.8352,-6.00536 -8.2423,-12.35206 -0.7023,-10.94895 5.7585,-16.04485 21.7423,-17.14908 l 8.5,-0.58722 0.3121,-3.23334 c 0.6962,-7.21197 -9.0232,-11.14649 -14.3575,-5.81211 -1.35,1.35 -2.4546,2.94647 -2.4546,3.54771 0,0.70605 -2.2133,0.98774 -6.25,0.79546 l -6.25,-0.29772 0.1221,-3.84015 c 0.2489,-7.83035 6.7191,-12.72794 17.7398,-13.42803 8.8111,-0.55974 14.6088,0.92549 19.1389,4.903 5.0118,4.4004 5.6447,7.84656 5.3014,28.86518 l -0.3022,18.5 -4.4451,0.31703 c -3.5481,0.25305 -4.7589,-0.0985 -6,-1.74172 l -1.5549,-2.05876 -4.9195,2.49172 c -5.5646,2.81849 -13.1497,3.27161 -18.0805,1.08009 z m 17.4088,-11.0412 c 3.3045,-1.7088 5.9573,-7.0811 4.31,-8.72837 -1.713,-1.71301 -12.7972,-0.51028 -15.1813,1.6473 -5.9176,5.35536 2.9894,11.15697 10.8713,7.08107 z m 111.6177,10.16944 c -4.9958,-2.82952 -8.1561,-9.54679 -7.1114,-15.11544 1.6197,-8.63403 10.3107,-13.60116 23.7978,-13.60116 7.8074,0 8.6635,-0.81438 6.7982,-6.46644 -1.3199,-3.99926 -3.5002,-5.53356 -7.8635,-5.53356 -4.3638,0 -6.0433,0.8977 -7.7102,4.12118 -1.3882,2.68439 -1.8922,2.87882 -7.4631,2.87882 l -5.9743,0 0,-3.63197 c 0,-4.82584 3.1742,-9.73124 7.7658,-12.00129 5.5589,-2.74828 20.2862,-2.62224 25.7342,0.22025 8.4355,4.40117 9.7977,9.4388 9.3055,34.41301 l -0.3055,15.5 -5.3292,0.30501 c -4.6712,0.26734 -5.3956,0.0512 -5.8666,-1.75 -0.6841,-2.616 -1.1765,-2.58296 -6.4521,0.43294 -5.7979,3.31451 -13.7118,3.40814 -19.3256,0.22865 z m 21.1905,-12.17399 c 1.2557,-1.45977 2.283,-3.75404 2.283,-5.09837 0,-2.2685 -0.3618,-2.44424 -5.0321,-2.44424 -9.9843,0 -15.9869,5.13695 -10.8567,9.29113 3.4132,2.76386 10.5088,1.85199 13.6058,-1.74852 z m 126.5581,13.48645 c -4.5888,-1.09024 -7.9589,-3.54555 -10.0043,-7.28848 -1.5352,-2.8094 -1.8123,-6.60122 -2.0832,-28.498 -0.3545,-28.65559 -0.9834,-26.63521 8.3124,-26.70503 l 5,-0.0376 0.5,4.5 c 0.4777,4.29867 0.6564,4.51484 3.996,4.8317 4.4927,0.42628 6.004,1.73748 6.004,5.20896 0,4.49893 -0.9864,5.95934 -4.0252,5.95934 -5.9548,0 -5.9748,0.0484 -5.9748,14.452 0,14.54843 0.4711,15.78388 6.6426,17.42192 2.4141,0.64076 2.9062,1.34074 3.172,4.51204 0.5239,6.25263 -2.5818,7.77137 -11.5395,5.6431 z m 21.3799,-0.8578 c -2.433,-2.6884 -2.0819,-6.0196 0.7713,-7.31961 6.0041,-2.73565 11.5081,3.35378 6.6137,7.31707 -2.8711,2.3249 -5.2825,2.32573 -7.385,0.003 z m 27.3069,-0.42126 c -3.2595,-1.64369 -5.0682,-3.45234 -6.7119,-6.71189 -1.9974,-3.96099 -2.25,-5.95726 -2.25,-17.78212 0,-14.89086 0.8881,-18.30114 5.8541,-22.47971 6.2447,-5.25458 22.6201,-5.97173 29.7459,-1.3027 3.4766,2.2779 6.3918,7.41747 6.3963,11.27642 0,3.1043 -0.1688,3.25 -3.8446,3.25 -3.5484,0 -3.9683,-0.30562 -5.389,-3.92236 -1.2629,-3.21497 -2.2371,-4.11571 -5.4017,-4.99443 -8.4366,-2.34257 -15.3769,-0.34479 -17.2257,4.95844 -1.4557,4.17602 -1.474,21.68837 -0.027,25.83951 1.3741,3.94174 5.3865,6.11884 11.2769,6.11884 6.8267,0 9.5578,-1.44544 11.3496,-6.00686 1.451,-3.69403 1.8568,-3.99314 5.4168,-3.99314 3.7809,0 3.8483,0.0657 3.8446,3.75 -0.01,5.22246 -3.2151,9.9929 -8.2669,12.28618 -6.2923,2.85635 -18.8228,2.71157 -24.7675,-0.28618 z m 52.0967,0.0684 c -7.8561,-4.10073 -8.5119,-5.79351 -8.8812,-22.92211 -0.2907,-13.48769 -0.1179,-15.38763 1.7501,-19.24652 2.788,-5.75917 8.2516,-8.78813 16.9643,-9.40475 7.9922,-0.56563 13.9382,0.8996 18.1987,4.48462 5.0248,4.22803 5.9095,7.60068 5.9095,22.52638 0,11.83164 -0.2514,13.81631 -2.25,17.75924 -3.2705,6.4524 -7.1749,8.33224 -18.2068,8.76597 -7.9267,0.31164 -9.5915,0.0693 -13.4846,-1.96283 z m 18.3931,-6.23371 c 4.6249,-1.93242 5.7385,-4.51556 6.3164,-14.65207 0.655,-11.48805 -0.3235,-17.5789 -3.3027,-20.55815 -2.0114,-2.01145 -3.3667,-2.37447 -8.8642,-2.37447 -5.4175,0 -6.9529,0.39849 -9.2939,2.41208 -2.7344,2.35206 -2.8129,2.70778 -3.155,14.29455 -0.2696,9.13294 0.011,12.74742 1.211,15.62046 2.4889,5.95674 9.9333,8.24715 17.0884,5.25757 z m 27.7708,6.85864 c -1.2223,-0.85622 -2.2225,-2.36148 -2.2225,-3.34505 0,-2.20874 3.0574,-5.09828 5.3945,-5.09828 5.1526,0 7.4322,5.0369 3.7768,8.34501 -2.2825,2.06558 -4.1033,2.09133 -6.9488,0.0983 z m 54.9003,0.60948 c -4.4433,-1.12124 -8.1591,-3.97461 -10.6228,-8.15731 -1.743,-2.95928 -2,-5.19396 -2,-17.39547 0,-13.09039 0.1619,-14.28284 2.4922,-18.35321 4.8717,-8.50981 15.0062,-10.84417 28.7203,-6.61537 2.1675,0.66833 2.2184,0.48143 2.5,-9.1746 l 0.2875,-9.85685 4,0 4,0 0,34.5 0,34.5 -3.3256,0.319 c -2.6686,0.25597 -3.4324,-0.0897 -3.8666,-1.75 -0.6731,-2.57388 -1.3309,-2.57795 -5.6411,-0.0349 -3.9503,2.33073 -11.6055,3.2648 -16.5439,2.01864 z m 15.9638,-9.33889 c 3.5757,-2.23311 4.4134,-5.64144 4.4134,-17.95718 0,-11.83396 -0.023,-11.95143 -2.8057,-14.34419 -2.2938,-1.97229 -3.9046,-2.41255 -8.827,-2.41255 -5.3216,0 -6.3607,0.3396 -8.9442,2.92308 -2.9175,2.91752 -2.9231,2.94672 -2.9231,15.36514 0,10.96878 0.2392,12.74613 2.02,15.00998 1.1109,1.41236 3.0234,2.77814 4.25,3.03508 3.1542,0.66075 10.6901,-0.29143 12.8166,-1.61939 z m -585.6166,8.06834 c -0.2783,-0.72507 -0.3853,-12.56019 -0.238,-26.30027 l 0.268,-24.98199 4.6576,-0.30102 c 3.7812,-0.24438 4.9299,0.0879 6.1053,1.7659 l 1.4477,2.06692 4.3947,-1.99394 c 8.3628,-3.79429 18.0613,-2.19392 23.1171,3.81458 3.9056,4.64156 4.9462,11.47432 4.5913,30.14756 l -0.3137,16.5 -6.5,0 -6.5,0 -0.5,-18.84077 c -0.4858,-18.30729 -0.5668,-18.89483 -2.8608,-20.75 -3.8419,-3.10708 -11.8892,-1.9566 -13.8231,1.97622 -0.4367,0.888 -1.0239,9.71455 -1.305,19.61455 l -0.5111,18 -5.7621,0.30026 c -4.0705,0.21212 -5.9106,-0.0867 -6.2679,-1.01803 z m 58.9996,-8.5e-4 c -0.2784,-0.72554 -0.3854,-12.33566 -0.2379,-25.80027 l 0.2683,-24.48114 6,0 6,0 0,25.5 0,25.5 -5.7621,0.30026 c -4.0722,0.21221 -5.9105,-0.0866 -6.2683,-1.01888 z m 90.917,-0.21628 c -2.9971,-7.81033 -16.1469,-50.14393 -15.7668,-50.75883 0.8249,-1.33477 12.1723,-0.94894 13.0501,0.44373 1.4512,2.30212 6.0688,17.56513 7.3195,24.19367 0.6804,3.60598 1.6042,6.55633 2.053,6.55633 0.4487,0 1.3083,-2.5875 1.9103,-5.75 0.602,-3.1625 2.5464,-10.25 4.3209,-15.75 l 3.2264,-10 4.7539,-0.30495 c 5.6552,-0.36277 5.0816,-1.40492 9.7991,17.80495 1.8234,7.425 3.6575,13.90259 4.0758,14.39464 0.4183,0.49206 1.022,-0.40794 1.3416,-2 1.6669,-8.30346 6.8091,-26.1723 8.0977,-28.13881 1.2329,-1.88166 2.3767,-2.25583 6.896,-2.25583 2.9798,0 5.6958,0.4497 6.0355,0.99934 0.6665,1.07842 -14.1082,48.68185 -15.7516,50.75066 -0.593,0.74666 -3.3695,1.25 -6.8952,1.25 -6.8565,0 -6.6534,0.28485 -9.9824,-14 -2.6795,-11.49735 -2.8855,-12.10867 -3.8751,-11.49708 -0.4734,0.29257 -1.3754,3.11161 -2.0045,6.26452 -1.487,7.45257 -4.1263,16.39915 -5.3051,17.98256 -1.3639,1.83213 -12.5849,1.67612 -13.2991,-0.1849 z m 128.7071,0.15212 c -4.282,-1.53013 -7.0817,-5.25381 -8.1646,-10.85906 -1.092,-5.65229 -1.1536,-53.9559 -0.071,-55.66276 0.5671,-0.8942 2.6857,-1.20877 6.7347,-1 l 5.9072,0.30457 0.5,27.20179 c 0.2969,16.14866 0.9064,27.58828 1.5,28.15293 0.55,0.52313 1.9,1.11349 3,1.31191 1.7132,0.30902 2,1.14768 2,5.84707 l 0,5.4863 -4,0.21722 c -2.2,0.11948 -5.5328,-0.33052 -7.4063,-1 z m 31.5901,-0.10893 c -9.0367,-3.35812 -11.6314,-8.7849 -11.6618,-24.39041 -0.03,-15.35082 1.9803,-20.05889 10.478,-24.54006 6.0601,-3.19574 19.3526,-3.005 25.5123,0.36609 6.6806,3.65621 9.1273,9.0865 8.7663,19.45609 l -0.2786,8 -14.9882,0.5 c -13.5034,0.45047 -15.0229,0.6812 -15.3385,2.32909 -0.7326,3.82453 0.8633,6.78826 4.4659,8.29351 4.4337,1.8525 8.944,1.02636 12.475,-2.28498 2.2224,-2.08413 3.42,-2.40555 7.9906,-2.14459 6.1935,0.35362 7.0076,1.66056 4.4247,7.1036 -2.6213,5.52403 -8.366,8.06798 -19.0295,8.42687 -5.9947,0.20176 -10.2743,-0.17063 -12.8162,-1.11521 z m 20.133,-33.33699 c 0.8609,-6.05734 -9.5557,-9.62429 -15.1819,-5.19872 -2.4879,1.957 -3.4889,5.74002 -1.9311,7.2979 0.3871,0.3871 4.3246,0.5746 8.75,0.41667 7.4575,-0.26614 8.0694,-0.45021 8.363,-2.51585 z m 204.6335,33.45981 c -0.2678,-0.69789 -0.3661,-12.28539 -0.2186,-25.75 l 0.2683,-24.48114 3.3153,-0.31823 c 6.1407,-0.58943 6.1847,-0.40613 6.1847,25.74067 0,17.08255 -0.3342,24.0118 -1.2,24.87756 -1.5914,1.59144 -7.732,1.54078 -8.3497,-0.0689 z m -475.4503,-57.73114 c -4.3483,-4.34829 -1.0224,-11 5.5,-11 2.1667,0 4.2619,0.7619 5.5,2 4.3483,4.34829 1.0225,11 -5.5,11 -2.1666,0 -4.2619,-0.7619 -5.5,-2 z m 476,-2 c -2.5049,-2.50492 -2.5284,-4.2118 -0.088,-6.41997 2.4981,-2.26072 6.9575,-1.6922 8.8165,1.12399 1.3316,2.01735 1.2392,2.41963 -1.0912,4.75 -3.0674,3.06742 -4.9788,3.20407 -7.6369,0.54598 z M 1196.71,531.31888 c 2.092,-2.09206 51.3014,-12.46643 89.8614,-18.94468 97.8763,-16.44363 216.9556,-25.50302 336,-25.5624 76.1965,-0.038 164.0881,4.21109 227,10.97426 4.675,0.50257 13.225,1.42063 19,2.04013 9.4649,1.01533 19.7492,2.27235 40.5,4.95023 42.5651,5.493 109.0863,17.6236 132.6655,24.19247 7.3659,2.05204 7.915,2.35697 4.7249,2.62387 -1.9853,0.16609 -9.1853,-0.6109 -16,-1.72666 -14.9925,-2.45469 -51.1704,-7.62474 -62.8904,-8.98744 -56.9391,-6.62038 -84.6945,-9.3377 -123,-12.04199 -152.6891,-10.7796 -290.3108,-10.7796 -443,0 -38.3747,2.70918 -64.3987,5.256 -123,12.0373 -11.279,1.3052 -55.3086,7.62968 -65.881,9.46327 -8.1038,1.40546 -16.9475,1.94871 -15.9804,0.98164 z m 323.9726,-50.99315 c -12.8792,-6.25748 -24.4826,-14.37054 -43.1112,-30.1433 -11.3551,-9.61434 -31.8307,-34.78453 -30.6979,-37.73637 0.2896,-0.75475 2.3505,-1.66394 4.5797,-2.0204 5.3015,-0.84775 9.1182,-2.63133 9.1182,-4.26099 0,-0.71779 -1.6502,-4.30729 -3.6672,-7.97668 l -3.6671,-6.67161 -8.8268,0.57186 c -10.0565,0.65153 -11.0165,0.1794 -12.9833,-6.38524 -1.4303,-4.77379 -0.7106,-5.72928 6.2311,-8.27249 7.4287,-2.72164 8.4449,-3.80247 7.2956,-7.75944 l -0.9819,-3.38031 -9.9387,0 -9.9387,0 -1.9497,-6.76176 c -1.3574,-4.7075 -1.6319,-7.07965 -0.9034,-7.80811 0.5755,-0.57549 4.1274,-1.69099 7.8932,-2.47889 8.9893,-1.88081 9.8694,-2.83389 9.0052,-9.75135 -1.0984,-8.79098 -1.8538,-9.32502 -11.1464,-7.88032 -10.4478,1.62427 -10.4879,1.57615 -10.7308,-12.87826 l -0.1911,-11.36944 8.7343,-3.15048 c 4.8039,-1.73276 9.349,-3.66056 10.1002,-4.28399 0.8577,-0.7119 1.6016,-4.38879 1.9999,-9.88545 0.3487,-4.81357 1.0425,-10.15418 1.5416,-11.86803 1.5667,-5.37905 0.2918,-6.023 -8.0579,-4.06999 -11.3543,2.65579 -11.2134,2.71075 -10.4201,-4.06393 0.3703,-3.1625 2.7,-11.825 5.1771,-19.25 14.1864,-42.52313 40.6486,-76.6524 78.6054,-101.38031 8.7761,-5.71736 32.1782,-17.60637 34.6731,-17.61501 2.0823,-0.007 18.3303,-4.9918 21.1464,-6.48734 1.375,-0.7302 8.35,-2.38082 15.5,-3.66804 11.9127,-2.14464 15.6766,-2.33584 45,-2.28589 30.8857,0.0526 32.4474,0.14911 44.8474,2.77105 25.3844,5.36746 50.3057,15.34297 69.0571,27.64218 28.5309,18.71378 52.2261,45.14238 67.0001,74.72922 21.0409,42.13702 26.0208,88.01543 14.552,134.06301 -8.5246,34.22654 -26.4384,64.98999 -52.5916,90.31568 -12.8392,12.43307 -22.179,19.42272 -39.865,29.83389 l -6,3.53202 -84,0.10321 c -46.2,0.0568 -88.725,0.43351 -94.5,0.83721 l -10.5,0.734 -7.3888,-3.58991 z"
           id="path4227" />
        <path
           style="fill:#0a0d0d"
           d="m 1275.8465,628.87025 c -9.6902,-2.45382 -12.2229,-7.72743 -12.2531,-25.51377 -0.027,-15.85268 1.5166,-20.19575 8.3539,-23.50561 5.1157,-2.47649 13.8169,-2.72949 18.0449,-0.52468 1.6064,0.83771 3.2739,1.16992 3.7056,0.73823 0.4316,-0.43168 0.9173,-4.60735 1.0792,-9.27927 l 0.2944,-8.49439 5.5,0 5.5,0 0,33 0,33 -4.3276,0.31129 c -3.6696,0.26396 -4.4095,-0.002 -4.8666,-1.75 -0.6731,-2.57405 -1.7225,-2.58488 -5.8079,-0.0599 -3.7521,2.31892 -10.5872,3.25201 -15.2228,2.07815 z m 13.7449,-9.58984 c 4.36,-2.25464 4.98,-4.305 4.98,-16.46936 0,-10.46374 -0.143,-11.25423 -2.4545,-13.56574 -3.4137,-3.4137 -10.2951,-3.4339 -14.2397,-0.0418 -2.6366,2.26727 -2.8272,2.97119 -3.1618,11.67448 -0.1991,5.17938 0.1475,10.94224 0.7863,13.07432 1.8259,6.09446 8.0536,8.44949 14.0897,5.3281 z m 44.6352,9.10446 c -9.8479,-3.64639 -11.8174,-9.36453 -11.4301,-33.18566 l 0.2749,-16.90845 5.5,0 5.5,0 0.5,18.6483 c 0.4377,16.32307 0.7311,18.9033 2.3537,20.69332 3.7859,4.17659 13.2408,3.48001 15.904,-1.17171 0.8035,-1.40341 1.4189,-8.52826 1.7423,-20.16991 l 0.5,-18 5.5,0 5.5,0 0.2672,25.25 0.2672,25.25 -4.8952,0 c -3.8639,0 -5.189,-0.44251 -6.2899,-2.10041 l -1.3946,-2.10042 -3.5515,2.09545 c -4.7184,2.78391 -11.4248,3.48538 -16.248,1.69949 z m 139.6611,-0.53749 c -10.9767,-4.98361 -9.2983,-21.25838 2.5987,-25.19738 1.9718,-0.65284 7.41,-1.45074 12.085,-1.77311 7.9637,-0.54915 8.521,-0.73452 8.8329,-2.93784 0.8976,-6.34122 -3.0207,-11.14829 -9.0872,-11.14829 -4.846,0 -7.5743,1.41902 -8.7688,4.5608 -0.8286,2.17936 -1.5159,2.4392 -6.4521,2.4392 -6.3533,0 -6.7215,-0.76846 -3.6297,-7.57586 2.6692,-5.87678 7.2778,-7.89006 18.1049,-7.90915 10.9614,-0.0193 15.5194,2.04113 18.7701,8.48501 2.1512,4.26438 2.256,5.46868 2,23 l -0.2701,18.5 -3.7055,0.30771 c -2.8644,0.23787 -3.9971,-0.15931 -4.9905,-1.75 -1.4887,-2.38371 -3.4843,-2.62747 -5.7252,-0.69931 -4.4809,3.85549 -13.3351,4.61634 -19.7625,1.69822 z m 20.9329,-11.00947 c 1.9576,-2.19093 2.77,-4.05692 2.5594,-5.87848 -0.292,-2.52521 -0.6311,-2.68325 -6.3086,-2.93995 -8.0397,-0.3635 -12.8737,1.9707 -13.3062,6.42522 -0.4399,4.53145 2.7596,6.62269 9.2468,6.04385 4.0013,-0.35702 5.4859,-1.05112 7.8086,-3.65064 z m 109.8219,11.2013 c -5.1775,-2.64007 -7.5836,-6.54242 -7.5014,-12.16606 0.1405,-9.60549 6.462,-13.92106 21.9303,-14.97131 l 9,-0.61108 -0.099,-4.42174 c -0.1293,-5.77724 -3.6159,-9.07826 -9.5887,-9.07826 -3.363,0 -4.6536,0.61231 -7.377,3.5 -2.8363,3.00727 -3.9439,3.5 -7.8681,3.5 -4.3166,0 -4.567,-0.15087 -4.5634,-2.75 0.01,-3.82634 3.2867,-8.81453 7.202,-10.94765 4.958,-2.7012 20.0245,-2.54822 24.7908,0.25172 7.8839,4.63134 9.3044,10.02436 8.8097,33.44593 l -0.3063,14.5 -4.3276,0.31129 c -3.6696,0.26396 -4.4095,-0.002 -4.8666,-1.75 -0.6935,-2.65181 -1.744,-2.59158 -7.7253,0.4429 -5.8705,2.97832 -12.5697,3.26308 -17.5094,0.74426 z m 18.0574,-8.81487 c 3.2977,-1.70534 6.2344,-7.32443 5.2155,-9.97961 -0.5316,-1.38535 -1.8442,-1.59681 -7.9866,-1.28663 -6.3394,0.32012 -7.713,0.73371 -9.9862,3.0069 -6.4284,6.42846 3.6632,12.96204 12.7573,8.25934 z m 128.2181,9.41959 c -5.3145,-1.19339 -8.8279,-4.73623 -10.2338,-10.31958 -0.6501,-2.58166 -1.1128,-13.60393 -1.1128,-26.50779 0,-24.69198 -0.4373,-23.31216 7.433,-23.45301 l 4.067,-0.0728 0.5,4.5 c 0.4988,4.48863 0.5108,4.50078 4.75,4.8075 l 4.25,0.3075 0,4.4425 c 0,4.24178 -0.1318,4.4425 -2.9182,4.4425 -6.0942,0 -6.0818,-0.0303 -6.0818,14.88448 0,15.29848 0.724,17.47296 6.2948,18.90615 2.6979,0.69407 3.2565,1.35288 3.5294,4.16212 0.4882,5.02556 -1.7524,5.85966 -10.4776,3.90042 z m 22.4034,0.0667 c -3.4131,-1.98798 -1.4532,-6.9199 2.75,-6.9199 4.1142,0 5.7551,3.60206 2.9286,6.42857 -1.8079,1.80786 -3.21,1.92917 -5.6786,0.49133 z m 30.25,0.43757 c -10.5832,-4.23677 -12.0081,-7.20153 -11.978,-24.92319 0.027,-15.94725 1.4627,-20.09449 8.1529,-23.55255 6.0422,-3.12314 18.5022,-3.17848 24.4375,-0.10854 4.215,2.18011 7.3876,6.98626 7.3876,11.1913 0,1.83705 -0.4888,2.1151 -3.25,1.84887 -2.4278,-0.23409 -3.3267,-0.85113 -3.5533,-2.43909 -0.1667,-1.16915 -1.4404,-3.19415 -2.8303,-4.5 -2.1895,-2.05713 -3.5147,-2.37427 -9.9214,-2.37427 -6.7473,0 -7.6372,0.24263 -10.1697,2.77273 -2.7687,2.76612 -2.7753,2.80598 -2.7753,16.72727 0,13.83444 0.023,13.97783 2.7057,16.66026 2.1939,2.19383 3.8497,2.78846 8.7524,3.14309 8.9873,0.65008 12.2143,-1.15212 14.4199,-8.05335 0.3703,-1.1588 1.5833,-1.75 3.5906,-1.75 2.5976,0 3.0314,0.37192 3.0314,2.59887 0,4.06595 -2.7263,8.80822 -6.2657,10.89902 -2.3562,1.39182 -5.5396,1.98464 -11.7338,2.18505 -4.6753,0.15126 -9.1755,0.005 -10.0005,-0.32547 z m 49.7405,-0.78678 c -8.4784,-3.02546 -10.0138,-7.25353 -9.5687,-26.35045 0.2876,-12.34048 0.5835,-14.43023 2.3927,-16.90093 3.4999,-4.7793 8.8653,-6.81931 17.9355,-6.81931 10.4013,0 15.0759,2.16749 18.25,8.46189 1.9629,3.89254 2.2493,5.99799 2.2444,16.5 0,6.62096 -0.4502,13.63869 -0.9936,15.59496 -1.1782,4.24116 -5.2169,8.24193 -9.9,9.80709 -4.5629,1.52496 -15.7151,1.36433 -20.3603,-0.29325 z m 19.8467,-6.03588 c 3.4374,-2.25222 4.6706,-8.38172 4.2281,-21.0153 -0.41,-11.70842 -1.3663,-14.53827 -5.5584,-16.44835 -3.3988,-1.54856 -12.8842,-1.31523 -16.1981,0.39846 -3.9763,2.0562 -5.059,6.10897 -5.0572,18.9296 0,13.2882 1.4818,17.38037 6.9984,19.3511 4.2402,1.51475 12.3903,0.87919 15.5872,-1.21551 z m 24.9842,5.89376 c -0.8642,-0.86428 -1.5714,-1.95714 -1.5714,-2.42857 0,-1.48137 3.0673,-4 4.8715,-4 3.9938,0 5.6118,5.13579 2.1943,6.96482 -2.6279,1.40639 -3.6516,1.30648 -5.4944,-0.53625 z m 54.7012,0.40994 c -9.4198,-2.11081 -12.9644,-10.33728 -12.0066,-27.8653 0.5821,-10.65213 2.2197,-15.63688 6.1534,-18.73115 5.3057,-4.17348 16.2398,-4.89584 22.9455,-1.51589 1.5757,0.79421 3.2449,1.06405 3.7093,0.59964 0.4644,-0.46441 0.9752,-5.11521 1.1351,-10.3351 l 0.2907,-9.49071 3.25,-0.31336 3.25,-0.31336 0,34.06336 0,34.06336 -2.5314,0 c -1.4982,0 -2.7949,-0.71426 -3.177,-1.75 -1.0042,-2.7216 -2.5876,-3.29212 -4.4525,-1.60433 -2.2093,1.99935 -8.6445,4.2841 -11.8391,4.20334 -1.375,-0.0348 -4.4023,-0.48948 -6.7275,-1.0105 z m 16.4374,-7.38416 c 3.8628,-2.53096 5.29,-7.32615 5.29,-17.77301 0,-15.16239 -2.3357,-18.68134 -12.3997,-18.68134 -11.8167,0 -13.6003,2.62498 -13.6003,20.01608 0,6.75413 0.4774,13.00736 1.0788,14.13104 2.5446,4.75481 13.8652,6.08529 19.6312,2.30723 z m -585.71,-17.90209 0,-25.55226 4.5936,0 c 3.7527,0 4.6894,0.36616 5.1167,2 0.2876,1.1 1.0503,2 1.6949,2 0.6446,0 2.9372,-0.9 5.0948,-2 8.4662,-4.3163 19.6556,-1.3988 23.6822,6.17484 2.1658,4.07363 2.3001,5.43012 2.3087,23.32516 l 0.01,19 -5.5,0 -5.5,0 -0.5111,-18 c -0.2811,-9.9 -0.8683,-18.72655 -1.305,-19.61455 -2.1199,-4.31107 -11.0777,-5.16989 -15.3781,-1.47437 l -2.8057,2.41109 -0.5,18.33891 -0.5,18.33892 -5.25,0.30226 -5.25,0.30226 0,-25.55226 z m 59.4708,24.23226 c -0.2798,-0.72924 -0.3877,-11.89159 -0.2398,-24.80521 l 0.269,-23.47931 5,0 5,0 0,24.5 0,24.5 -4.7602,0.30521 c -3.2604,0.20904 -4.9205,-0.11255 -5.269,-1.02069 z m 91.1981,0.46548 c -0.9385,-1.567 -15.6689,-47.46778 -15.6689,-48.82516 0,-1.83954 9.307,-1.991 10.7445,-0.17484 1.6044,2.02717 5.2582,14.00136 7.2728,23.83421 1.0298,5.02629 2.1296,9.39605 2.4442,9.71058 1.1992,1.19923 2.2894,-1.58627 3.8685,-9.884 0.899,-4.72406 2.88,-12.14906 4.4023,-16.5 2.7465,-7.85027 2.7964,-7.91317 6.5195,-8.22126 3.1857,-0.26363 3.8897,0.0525 4.6664,2.0952 0.796,2.09371 6.3388,24.16361 7.6513,30.46527 0.2577,1.2375 1.0779,2.25 1.8225,2.25 0.913,0 1.877,-2.84944 2.9601,-8.75 0.8833,-4.8125 2.8916,-12.575 4.4628,-17.25 l 2.8566,-8.5 4.8038,-0.31049 c 2.6421,-0.17077 5.1734,0.0591 5.6251,0.51091 0.4518,0.45177 -2.7878,11.97564 -7.199,25.60861 l -8.0205,24.78722 -5.6114,-0.29812 -5.6115,-0.29813 -1.7653,-5.5 c -0.9709,-3.025 -2.5193,-9.0108 -3.4409,-13.30177 -2.3291,-10.84468 -4.1071,-10.25484 -6.9383,2.30177 -1.1781,5.225 -2.7104,11.1875 -3.4053,13.25 -1.2499,3.71019 -1.3202,3.75 -6.6267,3.75 -2.9499,0 -5.5656,-0.3375 -5.8126,-0.75 z m 127.8311,-0.62805 c -6.668,-2.99768 -6.887,-3.74487 -7.7578,-26.45794 -0.4357,-11.3652 -0.6685,-24.71401 -0.5172,-29.66401 l 0.275,-9 5.5,0 5.5,0 0.267,26.41794 c 0.2806,27.78053 0.3883,28.43019 4.9996,30.1834 2.0351,0.77378 2.3076,1.46071 2.0411,5.14582 -0.2954,4.08258 -0.4478,4.26226 -3.8077,4.48816 -1.925,0.12943 -4.85,-0.37159 -6.5,-1.11337 z m 31.655,0.16022 c -4.6829,-1.57634 -8.9059,-6.14363 -10.2312,-11.06518 -0.6375,-2.36764 -0.9707,-8.95279 -0.769,-15.19748 0.3078,-9.52847 0.6814,-11.54411 2.7607,-14.89655 3.3274,-5.36467 9.4623,-8.00833 18.5845,-8.0084 8.4094,-6e-5 13.2792,1.49779 16.7715,5.15856 3.6968,3.87523 4.7285,7.31532 4.7285,15.76593 l 0,7.40886 -15.25,0.27604 -15.25,0.27605 -0.3171,3.86406 c -0.3865,4.70825 2.4995,8.29812 7.4119,9.21969 4.1175,0.77245 10.0982,-1.14163 11.4481,-3.66384 1.3204,-2.46728 10.675,-2.81868 11.5896,-0.43534 0.8608,2.24322 -2.7689,7.69099 -6.6247,9.94287 -4.0502,2.36548 -19.3694,3.20053 -24.8528,1.35473 z m 20.6571,-32.51551 c 0.4883,-5.05773 -3.3206,-8.26666 -9.8121,-8.26666 -4.0718,0 -5.5822,0.49134 -7.5454,2.45455 -2.354,2.35396 -3.3333,7.33341 -1.7531,8.91364 0.3859,0.38584 4.7734,0.57334 9.75,0.41667 l 9.0485,-0.28486 0.3121,-3.23334 z m 204.6375,32.46265 c -0.2681,-0.69888 -0.3665,-11.83638 -0.2186,-24.75 l 0.269,-23.47931 3.25,-0.31336 3.25,-0.31336 0,25.06336 0,25.06336 -3.0314,0 c -1.6672,0 -3.2508,-0.57181 -3.519,-1.27069 z m -475.7946,-57.55802 c -5.0448,-5.57441 2.7483,-12.07925 9.1225,-7.61456 4.5104,3.15922 1.5483,9.4433 -4.4512,9.4433 -1.659,0 -3.761,-0.82293 -4.6713,-1.82874 z M 1919.621,568.032 c -3.7511,-3.03749 -0.051,-7.32865 4.9504,-5.74124 2.6148,0.8299 2.658,5.0775 0.066,6.46482 -2.4976,1.33667 -2.4662,1.34119 -5.0161,-0.72358 z m -691.9478,-42.67632 c 0.6445,-0.64457 32.8266,-7.00355 52.8982,-10.45236 51.8327,-8.90619 128.3048,-17.78259 181.5,-21.06739 40.9081,-2.52608 51.6915,-3.11114 75.5,-4.09634 32.7734,-1.35616 137.9629,-1.35217 171,0.006 23.7946,0.97857 34.3745,1.55157 75.5,4.08907 68.2318,4.20999 155.337,15.31636 216.4992,27.60479 24.1846,4.85905 24.3779,6.02838 0.3966,2.39929 -42.6087,-6.4475 -128.6211,-15.2149 -177.1114,-18.05281 -88.4336,-5.17559 -115.9703,-5.99517 -201.429,-5.99517 -85.2289,0 -107.8375,0.67876 -200.1507,6.00897 -14.8137,0.85535 -56.3387,4.08577 -70.2047,5.46154 -36.6913,3.64049 -86.7911,9.53551 -106.8958,12.57796 -12.541,1.89783 -18.3906,2.40466 -17.5024,1.51645 z m 290.8982,-47.67994 c -9.6896,-5.28006 -24,-14.60915 -24,-15.64588 0,-0.44316 5.9625,-3.44705 13.25,-6.67531 18.507,-8.19831 56.6968,-27.50511 79.1698,-40.02415 18.6842,-10.40842 20.5802,-11.30609 20.5802,-9.74366 0,3.53289 -32.4566,49.0018 -50.2864,70.44702 l -4.7865,5.757 -13.2135,-0.0141 -13.2136,-0.0141 -7.5,-4.08689 z m 107.75,3.36519 c -31.2125,-0.14668 -56.75,-0.53456 -56.75,-0.86196 0,-0.32739 3.2926,-4.26118 7.3168,-8.74174 4.0242,-4.48056 14.4585,-16.69647 23.1872,-27.14647 29.9032,-35.79972 40.9588,-44.91182 77.1638,-63.59878 19.168,-9.89345 26.5947,-14.6376 36.0254,-23.01298 10.8332,-9.62099 13.4093,-13.11852 21.2862,-28.89994 3.9773,-7.96856 8.3338,-15.95322 9.6811,-17.74368 1.3472,-1.79046 7.4873,-6.64142 13.6445,-10.77991 6.1573,-4.1385 13.7279,-9.36274 16.8237,-11.60942 3.8556,-2.79812 7.4547,-4.45067 11.4253,-5.24608 3.1882,-0.63865 5.9827,-1.71912 6.21,-2.40104 0.2432,-0.72966 -1.898,-2.26199 -5.2035,-3.72383 -3.6637,-1.62028 -7.4305,-4.43274 -10.8329,-8.0885 -7.1613,-7.6943 -11.3931,-9.71381 -19.2999,-9.21033 -4.843,0.30837 -7.3911,1.11441 -11.3989,3.60582 -2.8389,1.76477 -5.8151,3.20867 -6.6136,3.20867 -1.593,0 -11.9246,-15.15083 -16.5201,-24.22584 -4.811,-9.50065 -7.7214,-20.04084 -9.9121,-35.89715 -1.1447,-8.28555 -3.0005,-17.52158 -4.124,-20.5245 -3.3746,-9.0192 -11.1773,-19.48063 -22.9285,-30.74109 -14.4733,-13.8689 -17.2111,-14.08598 -10.549,-0.83646 4.997,9.93787 13.0739,32.24487 16.013,44.22504 4.6151,18.81115 5.105,38.08212 1.2055,47.41496 -0.8239,1.97177 -1.8638,3.58504 -2.3111,3.58504 -0.4472,0 -3.1213,-3.48986 -5.9424,-7.75524 -17.5694,-26.56403 -76.04,-82.28069 -114.6037,-109.20589 -4.2585,-2.9733 -7.7428,-5.7734 -7.7428,-6.22244 0,-0.44903 0.1134,-0.81643 0.252,-0.81643 0.1386,0 4.9761,-0.9011 10.75,-2.00244 61.6606,-11.76143 122.7161,6.46772 167.3616,49.96864 21.7601,21.20226 36.1592,42.85848 45.9782,69.15112 30.8171,82.52048 1.717,174.27836 -71.0192,223.93618 -11.9555,8.16219 -25.6588,15.04662 -29.2697,14.70492 -1.4041,-0.13286 -28.0904,-0.36158 -59.3029,-0.50825 z m -150.7689,-34.50304 c -11.5259,-11.04533 -27.4852,-30.73462 -26.7355,-32.984 0.2091,-0.62714 2.6018,-1.68923 5.3173,-2.36021 9.7044,-2.39797 28.4726,-8.45074 40.1064,-12.93446 23.8935,-9.20857 59.3307,-28.28232 59.3307,-31.93417 0,-0.84386 -0.1366,-1.53429 -0.3035,-1.53429 -0.1669,0 -5.0044,1.59571 -10.75,3.54602 -31.3911,10.65561 -78.3878,20.99772 -98.4191,21.65815 l -8.9727,0.29583 -1.7293,-3.5 c -0.9511,-1.925 -1.7509,-3.85349 -1.7773,-4.28554 -0.052,-0.8495 3.7045,-2.5832 19.9519,-9.20831 22.6042,-9.21716 33.8343,-15.25448 31.2946,-16.82406 -0.4413,-0.27279 -8.2257,1.00459 -17.2985,2.8386 -14.642,2.95979 -32.1068,5.47931 -37.9814,5.47931 -2.2517,0 -3.6119,-2.62897 -4.6191,-8.92738 -0.6036,-3.77509 -0.5739,-3.81651 3.2476,-4.52521 28.4831,-5.28217 75.3699,-24.42159 103.8307,-42.38412 17.0594,-10.76677 17.3954,-13.61367 0.8414,-7.12999 -30.2377,11.84318 -77.7439,24.84797 -102.1672,27.96816 -5.1435,0.65712 -9.7266,0.81311 -10.1846,0.34665 -0.8652,-0.88119 -1.6679,-20.977 -0.8698,-21.7751 0.2493,-0.24935 3.8177,-1.56876 7.9298,-2.93202 48.9636,-16.23279 104.4396,-42.97119 139.4987,-67.23573 9.8031,-6.78475 13.1423,-9.87657 11.6578,-10.79406 -0.5227,-0.32304 -8.3138,2.36472 -17.3136,5.97281 -29.6808,11.89936 -77.2115,27.00708 -109.3664,34.7623 -21.2617,5.12797 -28.0076,6.4597 -28.8207,5.68956 -1.3213,-1.25139 3.9917,-20.48997 9.3994,-34.03587 14.353,-35.9534 39.4033,-66.48827 72.4213,-88.27723 9.5622,-6.31018 32.0283,-17.72277 34.888,-17.72277 2.9626,0 6.2981,4.93656 17.23,25.5 31.2205,58.72774 34.4639,64.32698 40.0017,69.05809 4.6208,3.9477 5.342,5.07794 5.8838,9.22056 0.9368,7.16384 1.9121,8.72638 6.9148,11.07794 l 4.6006,2.16252 -1.6576,3.74044 c -0.9117,2.05725 -1.8625,5.17945 -2.1128,6.93824 -0.4084,2.86977 0.017,3.53061 4.1482,6.4425 2.5318,1.78459 4.6033,3.55894 4.6033,3.94301 0,0.38406 -0.8901,2.65993 -1.978,5.0575 -2.5091,5.52947 -2.5277,9.51352 -0.071,15.24394 1.7428,4.06587 2.6679,4.87578 8.6851,7.60414 3.7041,1.67948 9.0369,4.82981 11.8508,7.00073 6.2403,4.81437 12.8089,7.81501 18.9502,8.65677 2.5398,0.34812 4.8461,1.00222 5.1251,1.45355 0.2789,0.45132 -0.8099,3.42597 -2.4195,6.61033 -11.5376,22.82523 -43.9972,52.52174 -89.9043,82.25125 -26.499,17.16078 -80.1356,47.04496 -84.4203,47.03562 -0.7248,-0.002 -4.2512,-2.81408 -7.8366,-6.25 z"
           id="path4219" />
      </g>
    </g>
  </g>
</svg>
